<svg width="14" height="14" viewBox="0 0 14 14" fill="none" xmlns="http://www.w3.org/2000/svg">
<g clip-path="url(#clip0_181_625)">
<path d="M12.8333 1.75H4.08333C3.68083 1.75 3.36583 1.95417 3.15583 2.26333L0 7L3.15583 11.7308C3.36583 12.04 3.68083 12.25 4.08333 12.25H12.8333C13.475 12.25 14 11.725 14 11.0833V2.91667C14 2.275 13.475 1.75 12.8333 1.75ZM11.0833 9.09417L10.2608 9.91667L8.16667 7.8225L6.0725 9.91667L5.25 9.09417L7.34417 7L5.25 4.90583L6.0725 4.08333L8.16667 6.1775L10.2608 4.08333L11.0833 4.90583L8.98917 7L11.0833 9.09417Z" fill="#626262"/>
</g>
<defs>
<clipPath id="clip0_181_625">
<rect width="14" height="14" fill="white"/>
</clipPath>
</defs>
</svg>
