<svg width="20" height="20" viewBox="0 0 20 20" fill="none" xmlns="http://www.w3.org/2000/svg">
<g clip-path="url(#clip0_288_554)">
<path d="M9.99999 1.6665C5.39999 1.6665 1.66666 5.39984 1.66666 9.99984C1.66666 14.5998 5.39999 18.3332 9.99999 18.3332C14.6 18.3332 18.3333 14.5998 18.3333 9.99984C18.3333 5.39984 14.6 1.6665 9.99999 1.6665ZM9.99999 15.4165C9.30832 15.4165 8.74999 14.8582 8.74999 14.1665H11.25C11.25 14.8582 10.6917 15.4165 9.99999 15.4165ZM14.1667 13.3332H5.83332V12.4998L6.66666 11.6665V9.4915C6.66666 7.72484 7.52499 6.22484 9.16666 5.83317V5.4165C9.16666 4.9415 9.52499 4.58317 9.99999 4.58317C10.475 4.58317 10.8333 4.9415 10.8333 5.4165V5.83317C12.475 6.22484 13.3333 7.73317 13.3333 9.4915V11.6665L14.1667 12.4998V13.3332Z" fill="#232323"/>
</g>
<defs>
<clipPath id="clip0_288_554">
<rect width="20" height="20" fill="white"/>
</clipPath>
</defs>
</svg>
