<svg width="30" height="30" viewBox="0 0 30 30" fill="none" xmlns="http://www.w3.org/2000/svg">
<g clip-path="url(#clip0_288_549)">
<path d="M15 2.5C8.1 2.5 2.5 8.1 2.5 15C2.5 21.9 8.1 27.5 15 27.5C21.9 27.5 27.5 21.9 27.5 15C27.5 8.1 21.9 2.5 15 2.5ZM15 23.125C13.9625 23.125 13.125 22.2875 13.125 21.25H16.875C16.875 22.2875 16.0375 23.125 15 23.125ZM21.25 20H8.75V18.75L10 17.5V14.2375C10 11.5875 11.2875 9.3375 13.75 8.75V8.125C13.75 7.4125 14.2875 6.875 15 6.875C15.7125 6.875 16.25 7.4125 16.25 8.125V8.75C18.7125 9.3375 20 11.6 20 14.2375V17.5L21.25 18.75V20Z" fill="#48A9F8"/>
</g>
<defs>
<clipPath id="clip0_288_549">
<rect width="30" height="30" fill="white"/>
</clipPath>
</defs>
</svg>
