<svg width="61" height="61" viewBox="0 0 61 61" fill="none" xmlns="http://www.w3.org/2000/svg">
<g clip-path="url(#clip0_3_1700)">
<path d="M30.5 5.08325C16.47 5.08325 5.08334 16.4699 5.08334 30.4999C5.08334 44.5299 16.47 55.9166 30.5 55.9166C44.53 55.9166 55.9167 44.5299 55.9167 30.4999C55.9167 16.4699 44.53 5.08325 30.5 5.08325ZM27.9583 50.6553C17.9188 49.4099 10.1667 40.8699 10.1667 30.4999C10.1667 28.9241 10.37 27.4245 10.7004 25.9503L22.875 38.1249V40.6666C22.875 43.4624 25.1625 45.7499 27.9583 45.7499V50.6553ZM45.4958 44.1995C44.835 42.1407 42.9542 40.6666 40.6667 40.6666H38.125V33.0416C38.125 31.6437 36.9813 30.4999 35.5833 30.4999H20.3333V25.4166H25.4167C26.8146 25.4166 27.9583 24.2728 27.9583 22.8749V17.7916H33.0417C35.8375 17.7916 38.125 15.5041 38.125 12.7083V11.6662C45.5721 14.6908 50.8333 21.9853 50.8333 30.4999C50.8333 35.7866 48.8 40.5903 45.4958 44.1995Z" fill="#0D99FF"/>
</g>
<defs>
<clipPath id="clip0_3_1700">
<rect width="61" height="61" fill="white"/>
</clipPath>
</defs>
</svg>
