<svg width="116" height="41" viewBox="0 0 116 41" fill="none" xmlns="http://www.w3.org/2000/svg">
<g filter="url(#filter0_d_3_1717)">
<path d="M48.6829 21.4188C48.6829 26.4543 44.7279 30.1648 39.8742 30.1648C35.0204 30.1648 31.0654 26.4543 31.0654 21.4188C31.0654 16.3478 35.0204 12.6727 39.8742 12.6727C44.7279 12.6727 48.6829 16.3478 48.6829 21.4188ZM44.8268 21.4188C44.8268 18.2721 42.5346 16.1191 39.8742 16.1191C37.2137 16.1191 34.9215 18.2721 34.9215 21.4188C34.9215 24.5339 37.2137 26.7184 39.8742 26.7184C42.5346 26.7184 44.8268 24.53 44.8268 21.4188Z" fill="#EA4335"/>
<path d="M68.2101 21.4188C68.2101 26.4543 64.2551 30.1648 59.4014 30.1648C54.5477 30.1648 50.5926 26.4543 50.5926 21.4188C50.5926 16.3517 54.5477 12.6727 59.4014 12.6727C64.2551 12.6727 68.2101 16.3478 68.2101 21.4188ZM64.3541 21.4188C64.3541 18.2721 62.0618 16.1191 59.4014 16.1191C56.7409 16.1191 54.4487 18.2721 54.4487 21.4188C54.4487 24.5339 56.7409 26.7184 59.4014 26.7184C62.0618 26.7184 64.3541 24.53 64.3541 21.4188Z" fill="#FBBC05"/>
<path d="M86.5524 13.2011V28.903C86.5524 35.362 82.728 38 78.2069 38C73.951 38 71.3895 35.1648 70.4235 32.8462L73.7807 31.4543C74.3785 32.8778 75.8434 34.5576 78.2029 34.5576C81.0969 34.5576 82.8904 32.7792 82.8904 29.4314V28.1735H82.7558C81.8927 29.2342 80.2299 30.1609 78.1317 30.1609C73.7411 30.1609 69.7188 26.3517 69.7188 21.4503C69.7188 16.5134 73.7411 12.6727 78.1317 12.6727C80.226 12.6727 81.8887 13.5994 82.7558 14.6285H82.8904V13.205H86.5524V13.2011ZM83.1635 21.4503C83.1635 18.3707 81.1009 16.1191 78.4761 16.1191C75.8157 16.1191 73.5867 18.3707 73.5867 21.4503C73.5867 24.4984 75.8157 26.7184 78.4761 26.7184C81.1009 26.7184 83.1635 24.4984 83.1635 21.4503Z" fill="#4285F4"/>
<path d="M93.7092 3.99762V29.6285H89.9482V3.99762H93.7092Z" fill="#34A853"/>
<path d="M109.443 24.2973L112.436 26.2847C111.47 27.7082 109.142 30.1609 105.12 30.1609C100.132 30.1609 96.4062 26.3202 96.4062 21.4148C96.4062 16.2137 100.163 12.6688 104.688 12.6688C109.245 12.6688 111.474 16.2808 112.203 18.2326L112.602 19.2263L100.864 24.0686C101.763 25.8233 103.16 26.7185 105.12 26.7185C107.084 26.7185 108.445 25.7563 109.443 24.2973ZM100.231 21.1506L108.077 17.9054C107.646 16.8131 106.347 16.052 104.819 16.052C102.859 16.052 100.132 17.7752 100.231 21.1506Z" fill="#EA4335"/>
<path d="M16.8287 19.1435V15.433H29.3827C29.5054 16.0797 29.5687 16.8446 29.5687 17.6727C29.5687 20.4566 28.8047 23.8991 26.3422 26.3517C23.947 28.836 20.8867 30.1609 16.8327 30.1609C9.31854 30.1609 3 24.0647 3 16.5804C3 9.09622 9.31854 3 16.8327 3C20.9896 3 23.9509 4.62461 26.1759 6.74212L23.5471 9.36041C21.9517 7.86988 19.7901 6.71057 16.8287 6.71057C11.3416 6.71057 7.05004 11.1151 7.05004 16.5804C7.05004 22.0457 11.3416 26.4503 16.8287 26.4503C20.3879 26.4503 22.4149 25.0268 23.7134 23.7334C24.7665 22.6845 25.4593 21.1861 25.7325 19.1396L16.8287 19.1435Z" fill="#4285F4"/>
</g>
<defs>
<filter id="filter0_d_3_1717" x="0" y="0" width="115.602" height="41" filterUnits="userSpaceOnUse" color-interpolation-filters="sRGB">
<feFlood flood-opacity="0" result="BackgroundImageFix"/>
<feColorMatrix in="SourceAlpha" type="matrix" values="0 0 0 0 0 0 0 0 0 0 0 0 0 0 0 0 0 0 127 0" result="hardAlpha"/>
<feOffset/>
<feGaussianBlur stdDeviation="1.5"/>
<feColorMatrix type="matrix" values="0 0 0 0 1 0 0 0 0 1 0 0 0 0 1 0 0 0 1 0"/>
<feBlend mode="normal" in2="BackgroundImageFix" result="effect1_dropShadow_3_1717"/>
<feBlend mode="normal" in="SourceGraphic" in2="effect1_dropShadow_3_1717" result="shape"/>
</filter>
</defs>
</svg>
