<svg width="98" height="98" viewBox="0 0 98 98" fill="none" xmlns="http://www.w3.org/2000/svg">
<g filter="url(#filter0_d_3_1684)">
<path d="M87.3198 48.6599C87.3198 70.0112 70.0112 87.3198 48.6599 87.3198C27.3086 87.3198 10 70.0112 10 48.6599C10 27.3086 27.3086 10 48.6599 10C70.0112 10 87.3198 27.3086 87.3198 48.6599Z" fill="url(#paint0_linear_3_1684)"/>
<path d="M32.6591 32.4219C35.0502 32.4219 37.1355 34.3278 37.1355 37.0938C37.1355 40.5366 34.5603 42.503 31.8011 42.503C29.0418 42.503 26.9565 40.7816 26.9565 37.5859C26.9565 34.2057 29.6544 32.4229 32.6591 32.4229V32.4219ZM28.1224 67.3361C28.736 65.6148 29.1645 63.7099 29.1645 62.3576C29.1645 61.3744 27.4474 60.5132 27.4474 57.4406C27.4474 54.7975 29.1032 53.1377 32.292 53.1377C34.4386 53.1377 36.6456 55.3501 36.6456 58.5468C36.6456 61.7435 34.9898 65.6158 33.0283 68.6894C32.1702 70.0417 30.3918 71.0249 28.9814 70.5943C27.6325 70.1637 27.5098 69.0575 28.1234 67.3361H28.1224Z" fill="white"/>
<path d="M45.4994 66.8233C45.1926 63.197 45.3153 34.1225 45.3153 31.4794C45.3153 29.5745 46.2961 28.8979 48.32 28.7748C55.7397 28.3443 59.4184 28.4058 65.2437 29.6965C71.4975 31.0488 75.1772 36.0889 75.1772 42.1746C75.1772 48.567 72.6634 53.1159 67.6347 55.5129C63.772 57.3573 59.1729 57.8484 54.8806 57.1728C53.7771 56.9882 53.7158 57.4803 53.7158 58.7096C53.7158 59.9388 53.4703 64.3032 53.4703 66.3927C53.4703 68.7282 52.3668 70.6956 49.3008 70.6956C47.1541 70.6956 45.8052 69.9584 45.4994 66.8233ZM53.4703 47.7683C53.4703 48.8745 53.7771 49.1206 54.8806 49.1821C58.008 49.4281 61.1958 49.3051 63.6493 48.3824C66.2858 47.3992 67.3279 45.1252 67.3279 42.2361C67.3279 40.0842 66.1017 37.8717 63.3425 37.0116C60.3991 36.0899 57.0273 36.0899 54.5738 36.3964C53.7158 36.5195 53.409 36.704 53.409 37.4421L53.4703 47.7683Z" fill="white"/>
</g>
<defs>
<filter id="filter0_d_3_1684" x="0" y="0" width="97.3198" height="97.3198" filterUnits="userSpaceOnUse" color-interpolation-filters="sRGB">
<feFlood flood-opacity="0" result="BackgroundImageFix"/>
<feColorMatrix in="SourceAlpha" type="matrix" values="0 0 0 0 0 0 0 0 0 0 0 0 0 0 0 0 0 0 127 0" result="hardAlpha"/>
<feOffset/>
<feGaussianBlur stdDeviation="5"/>
<feComposite in2="hardAlpha" operator="out"/>
<feColorMatrix type="matrix" values="0 0 0 0 0 0 0 0 0 0 0 0 0 0 0 0 0 0 0.15 0"/>
<feBlend mode="normal" in2="BackgroundImageFix" result="effect1_dropShadow_3_1684"/>
<feBlend mode="normal" in="SourceGraphic" in2="effect1_dropShadow_3_1684" result="shape"/>
</filter>
<linearGradient id="paint0_linear_3_1684" x1="10" y1="29.3567" x2="87.3198" y2="67.9631" gradientUnits="userSpaceOnUse">
<stop stop-color="#48A9F8"/>
<stop offset="1" stop-color="#3B82F6"/>
</linearGradient>
</defs>
</svg>
