<svg width="50" height="50" viewBox="0 0 50 50" fill="none" xmlns="http://www.w3.org/2000/svg">
<g clip-path="url(#clip0_320_577)">
<path d="M8.12508 24.9999C8.12508 21.4374 11.0209 18.5416 14.5834 18.5416H22.9167V14.5833H14.5834C8.83341 14.5833 4.16675 19.2499 4.16675 24.9999C4.16675 30.7499 8.83341 35.4166 14.5834 35.4166H22.9167V31.4583H14.5834C11.0209 31.4583 8.12508 28.5624 8.12508 24.9999ZM16.6667 27.0833H33.3334V22.9166H16.6667V27.0833ZM35.4167 14.5833H27.0834V18.5416H35.4167C38.9792 18.5416 41.8751 21.4374 41.8751 24.9999C41.8751 28.5624 38.9792 31.4583 35.4167 31.4583H27.0834V35.4166H35.4167C41.1667 35.4166 45.8334 30.7499 45.8334 24.9999C45.8334 19.2499 41.1667 14.5833 35.4167 14.5833Z" fill="#232323"/>
</g>
<defs>
<clipPath id="clip0_320_577">
<rect width="50" height="50" fill="white"/>
</clipPath>
</defs>
</svg>
