<svg width="27" height="27" viewBox="0 0 27 27" fill="none" xmlns="http://www.w3.org/2000/svg">
<g clip-path="url(#clip0_3_1724)">
<path d="M22.5 1.125V4.5H25.875V6.75H22.5V10.125H20.25V6.75H16.875V4.5H20.25V1.125H22.5ZM13.5 14.625C14.7375 14.625 15.75 13.6125 15.75 12.375C15.75 11.1375 14.7375 10.125 13.5 10.125C12.2625 10.125 11.25 11.1375 11.25 12.375C11.25 13.6125 12.2625 14.625 13.5 14.625ZM15.75 3.65625V7.875H19.125V11.25H22.41C22.4662 11.6888 22.5 12.1388 22.5 12.6C22.5 16.335 19.4963 20.7563 13.5 25.875C7.50375 20.7563 4.5 16.335 4.5 12.6C4.5 6.9975 8.775 3.375 13.5 3.375C14.265 3.375 15.0188 3.465 15.75 3.65625Z" fill="#48A9F8"/>
</g>
<defs>
<clipPath id="clip0_3_1724">
<rect width="27" height="27" fill="white"/>
</clipPath>
</defs>
</svg>
