<?xml version="1.0" encoding="UTF-8"?>
<svg id="_레이어_1" data-name="레이어 1" xmlns="http://www.w3.org/2000/svg" viewBox="0 0 1080 1080">
  <defs>
    <style>
      .cls-1 {
        fill: #fff;
      }

      .cls-2 {
        fill: #48a9f8;
      }
    </style>
  </defs>
  <rect class="cls-2" x="148.72" y="148.72" width="782.56" height="782.56" rx="109.54" ry="109.54"/>
  <g>
    <path class="cls-1" d="M377.67,377.95c24.16,0,45.23,19.21,45.23,47.09,0,34.7-26.02,54.52-53.9,54.52s-48.95-17.35-48.95-49.56c0-34.07,27.26-52.04,57.62-52.04ZM331.83,729.86c6.2-17.35,10.53-36.55,10.53-50.18,0-9.91-17.35-18.59-17.35-49.56,0-26.64,16.73-43.37,48.95-43.37,21.69,0,43.99,22.3,43.99,54.52s-16.73,71.25-36.55,102.23c-8.67,13.63-26.64,23.54-40.89,19.2-13.63-4.34-14.87-15.49-8.67-32.84Z"/>
    <path class="cls-1" d="M507.41,724.69c-3.1-36.55-1.86-329.6-1.86-356.24,0-19.2,9.91-26.02,30.36-27.26,74.97-4.34,112.14-3.72,171,9.29,63.19,13.63,100.37,64.43,100.37,125.77,0,64.43-25.4,110.28-76.21,134.44-39.03,18.59-85.5,23.54-128.87,16.73-11.15-1.86-11.77,3.1-11.77,15.49s-2.48,56.38-2.48,77.44c0,23.54-11.15,43.37-42.13,43.37-21.69,0-35.32-7.43-38.41-39.03ZM587.95,532.63c0,11.15,3.1,13.63,14.25,14.25,31.6,2.48,63.81,1.24,88.6-8.06,26.64-9.91,37.17-32.83,37.17-61.95,0-21.69-12.39-43.99-40.27-52.66-29.74-9.29-63.81-9.29-88.6-6.2-8.67,1.24-11.77,3.1-11.77,10.54l.62,104.08Z"/>
  </g>
</svg>