<svg width="61" height="61" viewBox="0 0 61 61" fill="none" xmlns="http://www.w3.org/2000/svg">
<g clip-path="url(#clip0_3_1702)">
<path d="M43.2083 25.4167H17.7917V30.5001H43.2083V25.4167ZM48.2917 7.62508H45.75V2.54175H40.6667V7.62508H20.3333V2.54175H15.25V7.62508H12.7083C9.88708 7.62508 7.65042 9.91258 7.65042 12.7084L7.625 48.2917C7.625 51.0876 9.88708 53.3751 12.7083 53.3751H48.2917C51.0875 53.3751 53.375 51.0876 53.375 48.2917V12.7084C53.375 9.91258 51.0875 7.62508 48.2917 7.62508ZM48.2917 48.2917H12.7083V20.3334H48.2917V48.2917ZM35.5833 35.5834H17.7917V40.6667H35.5833V35.5834Z" fill="#0D99FF"/>
</g>
<defs>
<clipPath id="clip0_3_1702">
<rect width="61" height="61" fill="white"/>
</clipPath>
</defs>
</svg>
