<?xml version="1.0" encoding="UTF-8"?>
<svg id="_레이어_1" data-name="레이어 1" xmlns="http://www.w3.org/2000/svg" viewBox="0 0 1080 1080">
  <defs>
    <style>
      .cls-1 {
        fill: #fff;
      }

      .cls-2 {
        fill: #48a9f8;
      }
    </style>
  </defs>
  <g>
    <rect class="cls-2" x="101.07" y="414.38" width="251.24" height="251.24" rx="35.17" ry="35.17"/>
    <g>
      <path class="cls-1" d="M157.75,472.88c10.01,0,18.73,7.96,18.73,19.5,0,14.37-10.78,22.58-22.33,22.58s-20.27-7.19-20.27-20.53c0-14.11,11.29-21.56,23.87-21.56ZM138.76,618.64c2.57-7.19,4.36-15.14,4.36-20.79,0-4.11-7.19-7.7-7.19-20.53,0-11.03,6.93-17.96,20.27-17.96,8.98,0,18.22,9.24,18.22,22.58s-6.93,29.51-15.14,42.34c-3.59,5.65-11.03,9.75-16.94,7.95-5.65-1.8-6.16-6.42-3.59-13.6Z"/>
      <path class="cls-1" d="M211.49,616.5c-1.28-15.14-.77-136.53-.77-147.56,0-7.95,4.11-10.78,12.58-11.29,31.05-1.8,46.45-1.54,70.83,3.85,26.18,5.65,41.57,26.69,41.57,52.09,0,26.69-10.52,45.68-31.57,55.69-16.17,7.7-35.41,9.75-53.38,6.93-4.62-.77-4.88,1.28-4.88,6.42s-1.03,23.35-1.03,32.08c0,9.75-4.62,17.96-17.45,17.96-8.98,0-14.63-3.08-15.91-16.17ZM244.85,536.95c0,4.62,1.28,5.65,5.9,5.9,13.09,1.03,26.43.51,36.7-3.34,11.04-4.11,15.4-13.6,15.4-25.66,0-8.98-5.13-18.22-16.68-21.81-12.32-3.85-26.43-3.85-36.7-2.57-3.59.51-4.88,1.28-4.88,4.36l.26,43.11Z"/>
    </g>
  </g>
  <g>
    <path class="cls-2" d="M368.71,616.36c0-32.59,0-138.84.26-152.18.26-15.14,5.39-22.07,18.48-22.07,11.29,0,17.96,7.44,17.96,21.81l-.26,151.15c0,9.24-7.19,19.25-17.45,19.76-11.04.77-18.99-5.65-18.99-18.48Z"/>
    <path class="cls-2" d="M440.57,568.37c0-44.65,20.53-77.25,61.33-77.25,14.37,0,22.07,3.85,27.97,9.75,1.03-7.44,7.7-12.58,18.22-12.58s18.22,6.16,18.73,19.51c.77,22.84-.26,52.86-1.03,62.62-1.03,12.83-1.03,20.02,3.34,25.92,3.85,5.39,6.41,8.73,9.24,12.32,3.08,4.11,2.31,11.8-2.05,17.19-5.9,7.18-12.32,8.47-21.56,5.39-7.44-2.57-15.14-8.21-19.25-13.6-12.57,8.98-23.1,16.17-42.09,16.17-33.87,0-52.86-27.97-52.86-65.44ZM504.98,601.22c10.27,0,16.42-4.11,23.61-10.27,2.57-15.91,2.31-38.24,1.03-58.51-5.9-5.13-13.6-7.7-20.79-7.7-17.96,0-29.77,11.29-29.77,36.95,0,24.12,8.98,39.52,25.92,39.52Z"/>
    <path class="cls-2" d="M606.1,607.38c0-15.14-1.28-65.95,1.03-94.44.51-8.21,1.8-13.34,7.96-15.14,21.04-6.16,42.6-9.24,54.92-9.24s33.1,2.82,46.19,13.34c10.01,7.95,15.65,24.38,15.65,55.18s.77,43.11.26,55.43c-.51,12.32-5.65,19.76-16.42,19.76s-21.56-3.59-21.56-29.51-.51-41.32-.51-51.84c0-18.99-2.57-27.2-24.12-27.2-20.02,0-24.38,4.62-25.66,11.29-1.03,5.65-1.54,10.26-1.54,21.3,0,8.21,1.28,49.02,1.28,56.71,0,10.52-7.44,21.04-20.02,21.04s-17.45-11.55-17.45-26.69Z"/>
    <path class="cls-2" d="M773.16,618.92c0-32.59.26-79.04.26-88.28.26-20.27,8.21-25.92,18.48-25.92,11.55,0,18.48,7.19,18.48,24.89,0,36.44-.26,54.92-.26,87.25,0,13.34-10.01,20.27-18.73,20.79-7.96.51-18.22-5.9-18.22-18.73Z"/>
    <path class="cls-2" d="M843.74,604.04c9.24-10.52,24.38-27.46,40.03-44.91-14.11-15.65-27.2-30.54-35.93-40.55-7.95-9.5-7.7-20.27-1.03-26.18,6.93-5.39,19.5-6.67,29.26,3.59,7.7,7.96,19.5,21.3,32.59,35.93,13.34-14.63,25.15-27.2,31.31-33.1,11.29-10.78,22.58-11.29,29.77-3.85,6.93,7.19,7.7,16.42-1.8,26.43-7.95,8.21-21.04,22.58-34.9,38.24,14.89,16.42,29,32.08,39.01,41.57,10.01,9.5,7.95,19.25,1.03,26.43-6.93,7.19-17.96,6.16-29.26-4.62-8.98-8.47-21.56-21.81-34.9-36.44-17.19,19.25-32.08,35.93-36.96,40.03-10.78,9.24-21.81,8.98-28.74,3.33-6.67-5.65-7.44-16.42.51-25.92Z"/>
    <path class="cls-2" d="M805.86,464.8c3.41-3.09,6.56-6.59,10.03-9.65,1.18-.48,2.47.15,2.28,1.52l-5.37,23.52c-1.1,3.7-4.14,5.88-7.92,6.31l-25.1-.02c-3.81-.71-6.46-2.87-7.49-6.64-2.08-7.58-3.23-15.47-5.29-23.06-.32-1.45,1.31-2.25,2.45-1.48l10.96,10.5c1.36,1.16,3.3.93,4.41-.44l6.44-12.32c.52-.83,1.71-.95,2.41-.29.15.14.38.58.5.79,2.08,3.6,3.73,7.86,5.89,11.36.42.68.84,1.14,1.61,1.41,1.94.69,2.9-.34,4.2-1.52Z"/>
    <path class="cls-2" d="M791.74,440.6c1.97-.28,3.68.46,4.61,2.24,2.05,3.89-2.45,7.97-6.19,5.54-3.11-2.01-2.13-7.25,1.58-7.78Z"/>
    <path class="cls-2" d="M765,443.41c4.54-.53,6.65,5.36,2.89,7.85-2.63,1.74-6.26.06-6.62-3.09-.27-2.28,1.46-4.49,3.74-4.76Z"/>
    <path class="cls-2" d="M816.5,444.6c1.77-1.8,4.88-1.61,6.43.34,2.76,3.47-.89,8.31-5.03,6.65-2.75-1.11-3.45-4.9-1.4-6.99Z"/>
  </g>
</svg>