<svg width="216" height="29" viewBox="0 0 216 29" fill="none" xmlns="http://www.w3.org/2000/svg">
<path d="M9.56447 2.31106C12.646 2.31106 15.0756 3.09328 16.8534 4.65773C18.6548 6.22217 19.5556 8.36736 19.5556 11.0933C19.5556 12.8948 19.1526 14.4592 18.3467 15.7866C17.5408 17.0903 16.3793 18.0977 14.8622 18.8088C13.3689 19.4962 11.603 19.84 9.56447 19.84H4.05336V27.2H2.52724e-05V2.31106H9.56447ZM9.38669 16.32C11.3541 16.32 12.8593 15.8696 13.9022 14.9688C14.9452 14.0444 15.4667 12.7525 15.4667 11.0933C15.4667 9.41032 14.9452 8.11847 13.9022 7.21773C12.8593 6.29328 11.3541 5.83106 9.38669 5.83106H4.05336V16.32H9.38669ZM27.1072 0.817728V27.2H23.1606V0.817728H27.1072ZM38.9247 8.03551C41.5085 8.03551 43.4877 8.69921 44.8625 10.0266C46.2373 11.354 46.9247 13.3214 46.9247 15.9288V27.2H43.2625V24.4266C42.741 25.3985 41.9825 26.1451 40.987 26.6666C39.9914 27.1644 38.7944 27.4133 37.3959 27.4133C35.3573 27.4133 33.7455 26.9037 32.5603 25.8844C31.3751 24.8414 30.7825 23.4903 30.7825 21.8311C30.7825 20.1481 31.3751 18.8088 32.5603 17.8133C33.7455 16.794 35.5944 16.2844 38.107 16.2844H43.0136C43.0136 15.5022 42.9188 14.874 42.7292 14.4C42.3262 12.3851 40.904 11.3777 38.4625 11.3777C37.3959 11.3777 36.3647 11.5555 35.3692 11.9111C34.3973 12.2666 33.5559 12.7644 32.8447 13.4044L31.387 10.4888C32.3114 9.70662 33.4373 9.10217 34.7647 8.67551C36.1159 8.24884 37.5025 8.03551 38.9247 8.03551ZM38.3203 24.5688C39.4581 24.5688 40.4299 24.2962 41.2359 23.7511C42.0418 23.2059 42.6344 22.4118 43.0136 21.3688V18.8088H38.4981C35.8907 18.8088 34.587 19.7451 34.587 21.6177C34.587 22.5185 34.9188 23.2414 35.5825 23.7866C36.2462 24.3081 37.1588 24.5688 38.3203 24.5688ZM61.0224 8.03551C63.2505 8.03551 65.0402 8.73477 66.3913 10.1333C67.7424 11.5318 68.4179 13.5822 68.4179 16.2844V27.2H64.5068V16.8888C64.5068 15.1585 64.1276 13.8548 63.3691 12.9777C62.6105 12.1007 61.5083 11.6622 60.0624 11.6622C58.4505 11.6622 57.1705 12.1718 56.2224 13.1911C55.2979 14.2103 54.8357 15.6681 54.8357 17.5644V27.2H50.8891V8.2844H54.6579V11.2355C55.3216 10.2162 56.1987 9.43402 57.2891 8.88884C58.4031 8.31995 59.6476 8.03551 61.0224 8.03551ZM75.1517 4.94217C74.3932 4.94217 73.765 4.71699 73.2672 4.26662C72.7932 3.79254 72.5561 3.19995 72.5561 2.48884C72.5561 1.77773 72.7932 1.18514 73.2672 0.711061C73.765 0.236987 74.3932 -4.95911e-05 75.1517 -4.95911e-05C75.8865 -4.95911e-05 76.491 0.225136 76.965 0.675507C77.4628 1.12588 77.7117 1.69477 77.7117 2.38217C77.7117 3.11699 77.4628 3.73328 76.965 4.23106C76.491 4.70514 75.8865 4.94217 75.1517 4.94217ZM77.1072 8.2844V27.2H73.1606V8.2844H77.1072ZM88.747 20.4088L83.9114 27.2H79.6092L86.6136 17.6L79.8581 8.2844H84.3025L88.8536 14.6844L93.4759 8.2844H97.6714L90.9514 17.4933L98.027 27.2H93.547L88.747 20.4088ZM130.651 28.4088H126.811V1.10217H130.651V28.4088ZM118.064 1.84884C118.064 5.75995 117.721 9.45773 117.033 12.9422L125.175 24.5333L122.047 26.88L115.718 17.6355C114.698 20.5274 113.395 22.7792 111.807 24.3911C110.242 25.9792 108.452 26.8207 106.438 26.9155V22.7911C108.002 22.554 109.353 21.4992 110.491 19.6266C111.652 17.7303 112.541 15.2296 113.158 12.1244C113.798 9.01921 114.13 5.54662 114.153 1.70662L118.064 1.84884ZM158.061 10.3466V17.3866H154.221V1.10217H158.061V6.47106H161.474V10.3466H158.061ZM143.163 11.4844C142.215 12.9777 140.994 14.1866 139.501 15.1111C138.031 16.0355 136.384 16.5807 134.558 16.7466V13.0844C136.526 12.8474 138.102 12.0059 139.287 10.5599C140.496 9.09032 141.195 7.26514 141.385 5.08439H134.914V1.63551H151.483V5.08439H145.296C145.225 6.31699 145.035 7.38365 144.727 8.2844L152.265 13.5466L150.274 16.5333L143.163 11.4844ZM158.061 18.6666V28.5511H154.149V22.1511H135.696V18.6666H158.061ZM179.781 4.94217V8.67551H162.963V4.94217H169.399V0.995506H173.346V4.94217H179.781ZM186.217 15.6444V28.4088H182.377V1.10217H186.217V11.7333H189.63V15.6444H186.217ZM171.355 10.4177C172.801 10.4177 174.081 10.7851 175.195 11.52C176.309 12.2311 177.174 13.2266 177.79 14.5066C178.406 15.7866 178.715 17.2325 178.715 18.8444C178.715 20.4562 178.406 21.9022 177.79 23.1822C177.174 24.4622 176.309 25.4577 175.195 26.1688C174.081 26.88 172.801 27.2355 171.355 27.2355C169.909 27.2355 168.629 26.88 167.515 26.1688C166.401 25.4577 165.535 24.4622 164.919 23.1822C164.303 21.9022 163.995 20.4562 163.995 18.8444C163.995 17.2325 164.303 15.7866 164.919 14.5066C165.535 13.2266 166.401 12.2311 167.515 11.52C168.629 10.7851 169.909 10.4177 171.355 10.4177ZM171.355 23.7511C172.421 23.7511 173.298 23.3007 173.986 22.4C174.673 21.4992 175.017 20.314 175.017 18.8444C175.017 17.3511 174.673 16.1659 173.986 15.2888C173.322 14.3881 172.445 13.9377 171.355 13.9377C170.264 13.9377 169.375 14.3881 168.688 15.2888C168.024 16.1659 167.692 17.3511 167.692 18.8444C167.692 20.314 168.036 21.4992 168.723 22.4C169.411 23.3007 170.288 23.7511 171.355 23.7511ZM211.28 28.4088V1.10217H215.12V28.4088H211.28ZM206.302 8.85328C206.302 12.5037 205.698 15.6918 204.489 18.4177C203.303 21.12 201.609 23.2059 199.404 24.6755C197.2 26.1451 194.628 26.88 191.689 26.88V23.04C193.917 23.04 195.825 22.4711 197.413 21.3333C199.025 20.1718 200.246 18.5362 201.075 16.4266C201.929 14.2933 202.355 11.7807 202.355 8.88884V5.65328H191.689V1.95551H206.302V8.85328Z" fill="white"/>
</svg>
