<svg width="136" height="136" viewBox="0 0 136 136" fill="none" xmlns="http://www.w3.org/2000/svg">
<circle cx="68" cy="68" r="68" fill="#48A9F8"/>
<path d="M48.116 44.6441C48.116 48.4411 51.1424 51.7524 55.5348 51.7524C61.0017 51.7524 64.1243 47.6631 64.1243 43.2816C64.1243 38.9 61.3908 35.5887 56.3163 35.5887C50.9487 35.5887 48.1175 39.8728 48.1175 44.6441H48.116ZM103.558 37.44C100.825 38.4144 97.7999 39.0949 95.6525 39.0949C94.0912 39.0949 92.7237 36.3682 87.8445 36.3682C83.6475 36.3682 81.0117 38.9974 81.0117 44.0611C81.0117 47.4698 84.525 50.9744 89.6012 50.9744C94.6773 50.9744 100.826 48.3452 105.707 45.2303C107.855 43.8678 109.416 41.0436 108.732 38.8041C108.048 36.6621 106.292 36.4672 103.558 37.4416V37.44Z" fill="white"/>
<path d="M102.744 65.0337C96.9853 64.5465 50.8162 64.7414 46.6192 64.7414C43.5943 64.7414 42.5198 66.2988 42.3245 69.5127C41.6407 81.2948 41.7384 87.1364 43.7881 96.3867C45.9354 106.318 53.9388 112.161 63.6027 112.161C73.7534 112.161 80.977 108.169 84.7833 100.184C87.7121 94.0498 88.4919 86.7466 87.419 79.9307C87.126 78.1784 87.9074 78.0809 89.8594 78.0809C91.8114 78.0809 98.7419 77.6912 102.06 77.6912C105.768 77.6912 108.893 75.9389 108.893 71.0701C108.893 67.6614 107.722 65.5193 102.744 65.0337ZM72.4852 77.6912C74.2418 77.6912 74.6325 78.1784 74.7302 79.9307C75.1209 84.8969 74.9256 89.9589 73.4604 93.8549C71.8991 98.0416 68.2881 99.6964 63.7004 99.6964C60.2832 99.6964 56.7699 97.7493 55.404 93.3677C53.9404 88.6938 53.9404 83.3395 54.4272 79.4435C54.6225 78.0809 54.9156 77.5938 56.0877 77.5938L72.4852 77.6912Z" fill="white"/>
</svg>
