<svg width="21" height="21" viewBox="0 0 21 21" fill="none" xmlns="http://www.w3.org/2000/svg">
<circle cx="10.5" cy="10.5" r="10" fill="#48A9F8" stroke="#008DFF"/>
<path d="M7.42969 6.89363C7.42969 7.47992 7.89701 7.99123 8.57525 7.99123C9.4194 7.99123 9.90156 7.3598 9.90156 6.68323C9.90156 6.00667 9.47949 5.49536 8.69591 5.49536C7.86709 5.49536 7.42993 6.15688 7.42993 6.89363H7.42969ZM15.9906 5.78123C15.5685 5.93168 15.1015 6.03676 14.7699 6.03676C14.5288 6.03676 14.3177 5.61573 13.5642 5.61573C12.9162 5.61573 12.5092 6.02171 12.5092 6.8036C12.5092 7.32995 13.0517 7.8711 13.8355 7.8711C14.6193 7.8711 15.5688 7.46512 16.3224 6.98414C16.654 6.77375 16.8951 6.33767 16.7895 5.99186C16.6839 5.6611 16.4127 5.63101 15.9906 5.78147V5.78123Z" fill="white"/>
<path d="M15.8652 10.042C14.9761 9.96682 7.84705 9.99691 7.19898 9.99691C6.7319 9.99691 6.56599 10.2374 6.53582 10.7337C6.43024 12.553 6.44532 13.455 6.76182 14.8833C7.0934 16.4168 8.32921 17.319 9.82143 17.319C11.3888 17.319 12.5042 16.7026 13.092 15.4696C13.5442 14.5225 13.6646 13.3948 13.499 12.3423C13.4537 12.0717 13.5744 12.0567 13.8758 12.0567C14.1772 12.0567 15.2473 11.9965 15.7597 11.9965C16.3323 11.9965 16.8147 11.7259 16.8147 10.9741C16.8147 10.4478 16.634 10.117 15.8652 10.042ZM11.193 11.9965C11.4642 11.9965 11.5246 12.0717 11.5397 12.3423C11.6 13.1092 11.5698 13.8908 11.3436 14.4924C11.1025 15.1389 10.5449 15.3944 9.83652 15.3944C9.30886 15.3944 8.76637 15.0937 8.55545 14.4172C8.32945 13.6954 8.32945 12.8687 8.40463 12.2671C8.43479 12.0567 8.48004 11.9815 8.66103 11.9815L11.193 11.9965Z" fill="white"/>
</svg>
