<svg width="16" height="16" viewBox="0 0 16 16" fill="none" xmlns="http://www.w3.org/2000/svg">
<path d="M7.63125 0C3.41458 0 0 3.42222 0 7.63889C0 11.8556 3.41458 15.2778 7.63125 15.2778C11.8556 15.2778 15.2778 11.8556 15.2778 7.63889C15.2778 3.42222 11.8556 0 7.63125 0ZM4.96528 4.58333C5.59931 4.58333 6.11111 5.09514 6.11111 5.72917C6.11111 6.36319 5.59931 6.875 4.96528 6.875C4.33125 6.875 3.81944 6.36319 3.81944 5.72917C3.81944 5.09514 4.33125 4.58333 4.96528 4.58333ZM7.63889 12.2222C5.89722 12.2222 4.41528 10.9542 3.81944 9.16667H11.4583C10.8625 10.9542 9.38056 12.2222 7.63889 12.2222ZM10.3125 6.875C9.67847 6.875 9.16667 6.36319 9.16667 5.72917C9.16667 5.09514 9.67847 4.58333 10.3125 4.58333C10.9465 4.58333 11.4583 5.09514 11.4583 5.72917C11.4583 6.36319 10.9465 6.875 10.3125 6.875Z" fill="#0D99FF"/>
</svg>
