<svg width="289" height="75" viewBox="0 0 289 75" fill="none" xmlns="http://www.w3.org/2000/svg">
<path d="M10.848 24.384C7.64799 24.384 5.02399 23.456 2.97599 21.6C0.991986 19.744 -1.36197e-05 17.184 -1.36197e-05 13.92C-1.36197e-05 10.72 0.895986 8.15996 2.68799 6.23996C4.54399 4.25596 7.26399 3.26396 10.848 3.26396H52.224C55.808 3.26396 58.496 4.25596 60.288 6.23996C62.144 8.15996 63.072 10.72 63.072 13.92C63.072 17.184 62.048 19.744 60 21.6C58.016 23.456 55.424 24.384 52.224 24.384C50.048 24.384 48.288 24.16 46.944 23.712C45.664 23.2 44.608 22.624 43.776 21.984C42.944 21.28 42.144 20.704 41.376 20.256C40.608 19.744 39.648 19.488 38.496 19.488L37.632 21.216C37.888 21.792 38.336 22.624 38.976 23.712C39.616 24.736 40.224 26.24 40.8 28.224C41.376 30.144 41.664 32.768 41.664 36.096V63.84C41.664 66.464 40.672 68.64 38.688 70.368C36.768 72.096 34.4 72.96 31.584 72.96C28.704 72.96 26.272 72.096 24.288 70.368C22.368 68.64 21.408 66.464 21.408 63.84V36.096C21.408 32.768 21.696 30.144 22.272 28.224C22.848 26.24 23.456 24.736 24.096 23.712C24.8 22.624 25.28 21.792 25.536 21.216L24.576 19.488C23.424 19.488 22.464 19.744 21.696 20.256C20.928 20.704 20.128 21.28 19.296 21.984C18.464 22.624 17.408 23.2 16.128 23.712C14.848 24.16 13.088 24.384 10.848 24.384ZM61.0777 72.96C56.7897 72.32 54.0057 70.368 52.7257 67.104C51.4457 63.776 51.7017 59.584 53.4937 54.528L66.1657 18.528C67.3177 15.2 68.6297 12.352 70.1017 9.98396C71.6377 7.61596 73.5257 5.79196 75.7657 4.51196C78.0697 3.23196 80.9177 2.59196 84.3097 2.59196C89.4297 2.59196 93.2697 3.99996 95.8297 6.81596C98.4537 9.63196 100.63 13.536 102.358 18.528L114.934 54.528C116.726 59.584 117.046 63.776 115.894 67.104C114.806 70.368 112.086 72.32 107.734 72.96C104.214 73.408 101.142 72.992 98.5177 71.712C95.9577 70.432 94.4217 68.352 93.9097 65.472C93.5257 63.552 93.4617 61.952 93.7177 60.672C94.0377 59.392 94.3257 58.368 94.5817 57.6C94.7737 56.96 94.7737 56.352 94.5817 55.776C94.4537 55.136 93.9737 54.816 93.1417 54.816H75.2857C74.4537 54.816 73.9417 55.136 73.7497 55.776C73.6217 56.352 73.6857 56.96 73.9417 57.6C74.1977 58.368 74.4537 59.392 74.7097 60.672C74.9657 61.952 74.9337 63.552 74.6137 65.472C74.1017 68.352 72.5977 70.432 70.1017 71.712C67.6057 72.992 64.5977 73.408 61.0777 72.96ZM91.3177 41.376L86.3257 25.728C86.1977 25.088 85.9737 24.608 85.6537 24.288C85.3977 23.904 84.9497 23.712 84.3097 23.712C83.6697 23.712 83.1897 23.904 82.8697 24.288C82.6137 24.608 82.3897 25.088 82.1977 25.728L77.3017 41.376H91.3177ZM121.364 12.384C121.364 9.43996 122.26 7.16796 124.052 5.56796C125.908 3.90396 128.276 3.07196 131.156 3.07196C134.164 3.07196 136.564 3.90396 138.356 5.56796C140.148 7.16796 141.044 9.43996 141.044 12.384V53.28C141.044 54.496 141.364 55.36 142.004 55.872C142.644 56.32 143.7 56.128 145.172 55.296C148.372 53.44 151.22 51.968 153.716 50.88C156.212 49.728 158.964 49.152 161.972 49.152C166.132 49.152 169.268 50.24 171.38 52.416C173.492 54.592 174.548 57.44 174.548 60.96C174.548 64.736 173.396 67.648 171.092 69.696C168.852 71.744 165.236 72.768 160.244 72.768H140.468C136.244 72.768 132.724 72.288 129.908 71.328C127.092 70.304 124.948 68.48 123.476 65.856C122.068 63.232 121.364 59.424 121.364 54.432V12.384ZM199.77 29.664L214.17 9.31196C216.73 5.66396 219.514 3.61596 222.522 3.16796C225.53 2.65596 228.25 3.35996 230.682 5.27996C232.282 6.49596 233.338 8.12796 233.85 10.176C234.362 12.224 234.202 14.4 233.37 16.704C232.538 19.008 230.874 21.184 228.378 23.232L212.346 36.192V38.208C214.394 38.208 216.794 38.464 219.546 38.976C222.298 39.488 224.794 40.64 227.034 42.432C228.826 43.776 230.362 45.312 231.642 47.04C232.986 48.768 234.042 50.912 234.81 53.472C235.578 55.968 235.962 59.136 235.962 62.976C235.962 66.112 235.098 68.64 233.37 70.56C231.706 72.416 229.21 73.344 225.882 73.344C222.554 73.344 219.994 72.416 218.202 70.56C216.474 68.64 215.61 66.112 215.61 62.976C215.61 59.456 215.034 56.672 213.882 54.624C212.794 52.512 211.322 50.976 209.466 50.016C207.61 49.056 205.594 48.576 203.418 48.576H198.714V63.648C198.714 66.4 197.754 68.672 195.834 70.464C193.978 72.256 191.578 73.152 188.634 73.152C185.69 73.152 183.258 72.256 181.338 70.464C179.482 68.672 178.554 66.4 178.554 63.648V12.864C178.554 10.048 179.482 7.67996 181.338 5.75996C183.194 3.83996 185.626 2.87996 188.634 2.87996C191.834 2.87996 194.298 3.83996 196.026 5.75996C197.818 7.61596 198.714 9.91996 198.714 12.672V29.472L199.77 29.664ZM262.191 13.248C262.127 10.944 262.511 8.79996 263.343 6.81596C264.239 4.76796 265.679 3.13596 267.663 1.91996C269.647 0.639957 272.207 -4.3869e-05 275.343 -4.3869e-05C278.543 -4.3869e-05 281.103 0.639957 283.023 1.91996C285.007 3.13596 286.415 4.76796 287.247 6.81596C288.143 8.79996 288.559 10.944 288.495 13.248C288.431 15.36 288.111 17.344 287.535 19.2C286.959 21.056 286.287 22.976 285.519 24.96C284.751 26.88 284.047 29.024 283.407 31.392C282.767 33.696 282.351 36.352 282.159 39.36C281.967 41.856 281.263 43.712 280.047 44.928C278.831 46.08 277.263 46.656 275.343 46.656C273.359 46.656 271.759 46.08 270.543 44.928C269.327 43.776 268.655 41.92 268.527 39.36C268.335 36.352 267.919 33.696 267.279 31.392C266.639 29.024 265.935 26.88 265.167 24.96C264.399 22.976 263.727 21.056 263.151 19.2C262.575 17.344 262.255 15.36 262.191 13.248ZM275.343 74.784C271.567 74.784 268.623 73.792 266.511 71.808C264.399 69.76 263.343 67.072 263.343 63.744C263.343 60.352 264.399 57.6 266.511 55.488C268.687 53.376 271.631 52.32 275.343 52.32C278.927 52.32 281.775 53.376 283.887 55.488C285.999 57.536 287.055 60.256 287.055 63.648C287.055 66.976 286.031 69.664 283.983 71.712C281.935 73.76 279.055 74.784 275.343 74.784Z" fill="#48A9F8"/>
</svg>
