<svg width="283" height="26" viewBox="0 0 283 26" fill="none" xmlns="http://www.w3.org/2000/svg">
<path d="M15.92 10.4533V17.5733C15.0844 18.3556 14.0978 18.9511 12.96 19.36C11.8222 19.7689 10.6311 19.9733 9.38666 19.9733C7.60888 19.9733 6.00888 19.5645 4.58666 18.7467C3.16444 17.9289 2.04444 16.8 1.22666 15.36C0.408884 13.9022 -4.82798e-06 12.2667 -4.82798e-06 10.4533C-4.82798e-06 8.64002 0.408884 7.01335 1.22666 5.57335C2.04444 4.11557 3.16444 2.97779 4.58666 2.16002C6.02666 1.34224 7.63555 0.933348 9.41333 0.933348C10.7822 0.933348 12.0356 1.16446 13.1733 1.62668C14.3111 2.0889 15.2711 2.76446 16.0533 3.65335L14.8267 4.90668C13.4222 3.4489 11.6444 2.72002 9.49333 2.72002C8.05333 2.72002 6.76444 3.05779 5.62666 3.73335C4.48888 4.4089 3.59111 5.33335 2.93333 6.50668C2.29333 7.68002 1.97333 8.99557 1.97333 10.4533C1.97333 11.9111 2.29333 13.2267 2.93333 14.4C3.59111 15.5733 4.48888 16.4978 5.62666 17.1733C6.76444 17.8489 8.05333 18.1867 9.49333 18.1867C11.3422 18.1867 12.88 17.6622 14.1067 16.6133V10.4533H15.92ZM25.6001 19.92C24.3023 19.92 23.129 19.6178 22.0801 19.0133C21.049 18.3911 20.2401 17.5378 19.6534 16.4533C19.0668 15.3689 18.7734 14.1422 18.7734 12.7733C18.7734 11.4045 19.0668 10.1778 19.6534 9.09335C20.2401 8.0089 21.049 7.16446 22.0801 6.56002C23.129 5.93779 24.3023 5.62668 25.6001 5.62668C26.8801 5.62668 28.0357 5.93779 29.0668 6.56002C30.0979 7.16446 30.9068 8.0089 31.4934 9.09335C32.0801 10.1778 32.3734 11.4045 32.3734 12.7733C32.3734 14.1422 32.0801 15.3689 31.4934 16.4533C30.9068 17.5378 30.0979 18.3911 29.0668 19.0133C28.0357 19.6178 26.8801 19.92 25.6001 19.92ZM25.6001 18.24C26.5245 18.24 27.3601 18.0178 28.1068 17.5733C28.8534 17.1111 29.4401 16.4622 29.8668 15.6267C30.2934 14.7911 30.5068 13.84 30.5068 12.7733C30.5068 11.7067 30.2934 10.7645 29.8668 9.94668C29.4401 9.11113 28.8534 8.47113 28.1068 8.02668C27.3601 7.56446 26.5245 7.33335 25.6001 7.33335C24.6579 7.33335 23.8134 7.56446 23.0668 8.02668C22.3201 8.47113 21.7334 9.11113 21.3068 9.94668C20.8801 10.7645 20.6668 11.7067 20.6668 12.7733C20.6668 13.84 20.8801 14.7911 21.3068 15.6267C21.7334 16.4622 22.3201 17.1111 23.0668 17.5733C23.8134 18.0178 24.6579 18.24 25.6001 18.24ZM40.9517 19.92C39.6539 19.92 38.4806 19.6178 37.4317 19.0133C36.4006 18.3911 35.5917 17.5378 35.005 16.4533C34.4183 15.3689 34.125 14.1422 34.125 12.7733C34.125 11.4045 34.4183 10.1778 35.005 9.09335C35.5917 8.0089 36.4006 7.16446 37.4317 6.56002C38.4806 5.93779 39.6539 5.62668 40.9517 5.62668C42.2317 5.62668 43.3872 5.93779 44.4183 6.56002C45.4494 7.16446 46.2583 8.0089 46.845 9.09335C47.4317 10.1778 47.725 11.4045 47.725 12.7733C47.725 14.1422 47.4317 15.3689 46.845 16.4533C46.2583 17.5378 45.4494 18.3911 44.4183 19.0133C43.3872 19.6178 42.2317 19.92 40.9517 19.92ZM40.9517 18.24C41.8761 18.24 42.7117 18.0178 43.4583 17.5733C44.205 17.1111 44.7917 16.4622 45.2183 15.6267C45.645 14.7911 45.8583 13.84 45.8583 12.7733C45.8583 11.7067 45.645 10.7645 45.2183 9.94668C44.7917 9.11113 44.205 8.47113 43.4583 8.02668C42.7117 7.56446 41.8761 7.33335 40.9517 7.33335C40.0094 7.33335 39.165 7.56446 38.4183 8.02668C37.6717 8.47113 37.085 9.11113 36.6583 9.94668C36.2317 10.7645 36.0183 11.7067 36.0183 12.7733C36.0183 13.84 36.2317 14.7911 36.6583 15.6267C37.085 16.4622 37.6717 17.1111 38.4183 17.5733C39.165 18.0178 40.0094 18.24 40.9517 18.24ZM63.2366 18.1067C63.2366 20.4711 62.6766 22.2222 61.5566 23.36C60.4366 24.5156 58.7654 25.0933 56.5432 25.0933C55.281 25.0933 54.1077 24.9067 53.0232 24.5333C51.9388 24.16 51.0588 23.6267 50.3832 22.9333L51.2099 21.4933C51.8499 22.1156 52.6232 22.5956 53.5299 22.9333C54.4366 23.2711 55.3966 23.44 56.4099 23.44C58.0988 23.44 59.3432 23.0222 60.1432 22.1867C60.9432 21.3689 61.3432 20.0889 61.3432 18.3467V16.1867C60.8277 17.1467 60.1077 17.8933 59.1832 18.4267C58.2766 18.96 57.2454 19.2267 56.0899 19.2267C54.8454 19.2267 53.7166 18.9422 52.7032 18.3733C51.7077 17.7867 50.9166 16.9778 50.3299 15.9467C49.761 14.9156 49.4766 13.7422 49.4766 12.4267C49.4766 11.1111 49.761 9.93779 50.3299 8.90668C50.9166 7.87557 51.7077 7.07557 52.7032 6.50668C53.7166 5.92001 54.8454 5.62668 56.0899 5.62668C57.281 5.62668 58.3388 5.91113 59.2632 6.48002C60.1877 7.03113 60.9077 7.80446 61.4232 8.80001V5.78668H63.2366V18.1067ZM56.3832 17.5733C57.3432 17.5733 58.1966 17.36 58.9432 16.9333C59.7077 16.4889 60.3032 15.8756 60.7299 15.0933C61.1566 14.3111 61.3699 13.4222 61.3699 12.4267C61.3699 11.4311 61.1566 10.5511 60.7299 9.78668C60.3032 9.00446 59.7077 8.40002 58.9432 7.97335C58.1966 7.54668 57.3432 7.33335 56.3832 7.33335C55.4232 7.33335 54.561 7.54668 53.7966 7.97335C53.0321 8.40002 52.4366 9.00446 52.0099 9.78668C51.5832 10.5511 51.3699 11.4311 51.3699 12.4267C51.3699 13.4222 51.5832 14.3111 52.0099 15.0933C52.4366 15.8756 53.0321 16.4889 53.7966 16.9333C54.561 17.36 55.4232 17.5733 56.3832 17.5733ZM69.5548 1.4782e-05V19.7867H67.6615V1.4782e-05H69.5548ZM85.6429 13.2533H74.5229C74.5762 14.2311 74.8251 15.1022 75.2696 15.8667C75.7318 16.6311 76.3451 17.2267 77.1096 17.6533C77.8918 18.0622 78.7629 18.2667 79.7229 18.2667C80.5585 18.2667 81.3229 18.1156 82.0162 17.8133C82.7096 17.5111 83.2962 17.0489 83.7762 16.4267L84.8429 17.6267C84.2385 18.3733 83.4918 18.9422 82.6029 19.3333C81.714 19.7245 80.7451 19.92 79.6962 19.92C78.3274 19.92 77.1096 19.6178 76.0429 19.0133C74.9762 18.3911 74.1407 17.5378 73.5362 16.4533C72.9496 15.3689 72.6562 14.1422 72.6562 12.7733C72.6562 11.4045 72.9407 10.1778 73.5096 9.09335C74.0785 8.0089 74.8607 7.16446 75.8562 6.56002C76.8518 5.93779 77.9629 5.62668 79.1896 5.62668C80.4162 5.62668 81.5185 5.9289 82.4962 6.53335C83.4918 7.12002 84.2651 7.95557 84.8162 9.04002C85.3851 10.1067 85.6696 11.3333 85.6696 12.72L85.6429 13.2533ZM79.2162 7.22668C77.9185 7.22668 76.834 7.67113 75.9629 8.56002C75.1096 9.43113 74.6296 10.5689 74.5229 11.9733H83.9096C83.7851 10.5867 83.2874 9.4489 82.4162 8.56002C81.5629 7.67113 80.4962 7.22668 79.2162 7.22668ZM110.882 11.36H108.962V6.72002H103.495C102.713 8.10668 101.451 9.13779 99.7086 9.81335C97.9842 10.4889 95.8598 10.8267 93.3353 10.8267V9.04002C96.2686 9.02224 98.5353 8.53335 100.135 7.57335C101.735 6.59557 102.535 5.1289 102.535 3.17335V2.50668H93.3353V0.773348H104.482V2.88001C104.482 3.59113 104.402 4.25779 104.242 4.88001H108.962V0.213348H110.882V11.36ZM110.882 12.56V20.3733H94.482V12.56H110.882ZM108.962 18.64V14.2933H96.402V18.64H108.962ZM132.399 12.8533H130.559V6.88002H126.906V12.64H125.092V0.320014H126.906V4.98668H130.559V0.213348H132.399V12.8533ZM118.932 7.44001C117.919 10.0711 116.212 11.6533 113.812 12.1867V10.2933C116.71 9.47557 118.159 6.19557 118.159 0.453348L120.026 0.506682C120.026 2.4089 119.875 4.06224 119.572 5.46668L124.212 10.6933L122.906 11.9467L118.932 7.44001ZM132.399 14.0533V20.64H130.479V15.8133H115.386V14.0533H132.399ZM141.35 12.48V1.01335H149.163V2.88001H143.27V10.6133H149.163V12.48H141.35ZM150.39 12.48V1.01335H158.256V2.88001H152.31V10.6133H158.416V12.48H150.39ZM159.59 19.6533H140.176V17.7867H148.923V13.5733H150.843V17.7867H159.59V19.6533ZM179.48 6.32001V8.08001H162.76V0.240015H164.68V6.32001H179.48ZM161.294 12.3467V10.6133H180.707V12.3467H161.294ZM179.667 18.64V20.4H162.707V14.3467H164.654V18.64H179.667ZM196.271 19.9733C193.96 19.9733 192.155 19.28 190.858 17.8933C189.578 16.4889 188.938 14.4622 188.938 11.8133V1.12002H190.884V11.7333C190.884 13.9022 191.346 15.52 192.271 16.5867C193.195 17.6533 194.529 18.1867 196.271 18.1867C198.013 18.1867 199.346 17.6533 200.271 16.5867C201.195 15.52 201.658 13.9022 201.658 11.7333V1.12002H203.551V11.8133C203.551 14.4622 202.911 16.4889 201.631 17.8933C200.369 19.28 198.582 19.9733 196.271 19.9733ZM215.675 13.76C215.301 13.8311 214.848 13.8667 214.315 13.8667H209.595V19.7867H207.675V1.12002H214.315C216.59 1.12002 218.368 1.6889 219.648 2.82668C220.946 3.94668 221.595 5.50224 221.595 7.49335C221.595 8.9689 221.239 10.2133 220.528 11.2267C219.835 12.2222 218.839 12.9333 217.541 13.36L221.888 19.7867H219.728L215.675 13.76ZM214.261 12.1867C216.004 12.1867 217.337 11.7867 218.261 10.9867C219.186 10.1689 219.648 9.00446 219.648 7.49335C219.648 6.00001 219.186 4.85335 218.261 4.05335C217.337 3.25335 216.004 2.85335 214.261 2.85335H209.595V12.1867H214.261ZM227.114 1.12002V18.0533H237.007V19.7867H225.194V1.12002H227.114ZM261.053 10.88H259.107V0.213348H261.053V10.88ZM255.427 5.49335C255.427 6.4889 255.178 7.3689 254.68 8.13335C254.2 8.89779 253.498 9.49335 252.573 9.92002C251.667 10.3467 250.6 10.56 249.373 10.56C248.147 10.56 247.071 10.3467 246.147 9.92002C245.24 9.49335 244.538 8.89779 244.04 8.13335C243.56 7.3689 243.32 6.4889 243.32 5.49335C243.32 4.51557 243.56 3.64446 244.04 2.88001C244.538 2.11557 245.24 1.52002 246.147 1.09335C247.071 0.666682 248.147 0.453348 249.373 0.453348C250.6 0.453348 251.667 0.666682 252.573 1.09335C253.498 1.52002 254.2 2.11557 254.68 2.88001C255.178 3.64446 255.427 4.51557 255.427 5.49335ZM245.24 5.49335C245.24 6.54224 245.622 7.3689 246.387 7.97335C247.151 8.57779 248.147 8.88001 249.373 8.88001C250.618 8.88001 251.613 8.57779 252.36 7.97335C253.107 7.3689 253.48 6.54224 253.48 5.49335C253.48 4.44446 253.107 3.61779 252.36 3.01335C251.613 2.4089 250.618 2.10668 249.373 2.10668C248.147 2.10668 247.151 2.41779 246.387 3.04001C245.622 3.64446 245.24 4.46224 245.24 5.49335ZM261.053 11.8133V20.3733H244.92V11.8133H246.84V14.24H259.133V11.8133H261.053ZM259.133 15.8933H246.84V18.6933H259.133V15.8933ZM282.304 13.04H280.411V8.72002H276.624V6.98668H280.411V4.50668H276.624V2.74668H280.411V0.213348H282.304V13.04ZM273.317 2.42668H264.917V0.773348H275.211V7.20002H266.864V10.4533H271.264C272.668 10.4533 273.948 10.3822 275.104 10.24C276.259 10.0978 277.131 9.90224 277.717 9.65335V11.2533C277.148 11.5022 276.268 11.7067 275.077 11.8667C273.904 12.0089 272.579 12.08 271.104 12.08H264.971V5.62668H273.317V2.42668ZM282.304 14.24V20.64H280.357V15.9733H265.717V14.24H282.304Z" fill="#676767"/>
</svg>
