<svg width="65" height="66" viewBox="0 0 65 66" fill="none" xmlns="http://www.w3.org/2000/svg">
<path d="M55.9015 0H9.09847C4.07352 0 0 4.0836 0 9.12098V56.0398C0 61.0772 4.07352 65.1608 9.09847 65.1608H55.9015C60.9265 65.1608 65 61.0772 65 56.0398V9.12098C65 4.0836 60.9265 0 55.9015 0Z" fill="#48A9F8"/>
<path d="M19.0169 19.0869C21.0237 19.0869 22.7738 20.6865 22.7738 23.0079C22.7738 25.8973 20.6125 27.5476 18.2968 27.5476C15.981 27.5476 14.231 26.1029 14.231 23.4209C14.231 20.584 16.4952 19.0877 19.0169 19.0877V19.0869ZM15.2094 48.3891C15.7244 46.9444 16.084 45.3457 16.084 44.2108C16.084 43.3856 14.6429 42.6629 14.6429 40.0841C14.6429 37.8659 16.0325 36.4729 18.7088 36.4729C20.5103 36.4729 22.3626 38.3297 22.3626 41.0126C22.3626 43.6954 20.973 46.9453 19.3267 49.5249C18.6066 50.6598 17.114 51.4849 15.9304 51.1236C14.7983 50.7622 14.6953 49.8338 15.2102 48.3891H15.2094Z" fill="white"/>
<path d="M29.7935 47.9587C29.536 44.9153 29.639 20.5142 29.639 18.2959C29.639 16.6972 30.4621 16.1294 32.1607 16.0261C38.3878 15.6647 41.4752 15.7164 46.3641 16.7996C51.6127 17.9346 54.7009 22.1645 54.7009 27.272C54.7009 32.6369 52.5912 36.4546 48.3708 38.4663C45.129 40.0143 41.2692 40.4264 37.6668 39.8594C36.7407 39.7045 36.6892 40.1175 36.6892 41.1492C36.6892 42.1808 36.4832 45.8437 36.4832 47.5973C36.4832 49.5574 35.5571 51.2086 32.9839 51.2086C31.1823 51.2086 30.0501 50.5899 29.7935 47.9587ZM36.4832 31.9666C36.4832 32.895 36.7407 33.1015 37.6668 33.1531C40.2915 33.3596 42.9669 33.2564 45.026 32.482C47.2387 31.6568 48.1134 29.7484 48.1134 27.3237C48.1134 25.5176 47.0842 23.6608 44.7685 22.9389C42.2983 22.1653 39.4684 22.1653 37.4093 22.4226C36.6892 22.5259 36.4317 22.6807 36.4317 23.3002L36.4832 31.9666Z" fill="white"/>
</svg>
