<svg width="19" height="19" viewBox="0 0 19 19" fill="none" xmlns="http://www.w3.org/2000/svg">
<g clip-path="url(#clip0_272_597)">
<path d="M5.34722 8.40277V9.93055H12.9861V8.40277H5.34722ZM9.16666 1.52777C4.94999 1.52777 1.52777 4.94999 1.52777 9.16666C1.52777 13.3833 4.94999 16.8055 9.16666 16.8055C13.3833 16.8055 16.8055 13.3833 16.8055 9.16666C16.8055 4.94999 13.3833 1.52777 9.16666 1.52777ZM9.16666 15.2778C5.79791 15.2778 3.05555 12.5354 3.05555 9.16666C3.05555 5.79791 5.79791 3.05555 9.16666 3.05555C12.5354 3.05555 15.2778 5.79791 15.2778 9.16666C15.2778 12.5354 12.5354 15.2778 9.16666 15.2778Z" fill="#696969"/>
</g>
<defs>
<clipPath id="clip0_272_597">
<rect width="18.3333" height="18.3333" fill="white"/>
</clipPath>
</defs>
</svg>
