<svg width="138" height="36" viewBox="0 0 138 36" fill="none" xmlns="http://www.w3.org/2000/svg">
<path d="M0.157187 31.7427C-0.0743022 29.0132 0.0182884 7.1298 0.0182884 5.1412C0.0182884 3.70777 0.757265 3.19724 2.27975 3.1062C7.86399 2.7831 10.633 2.82772 15.017 3.8006C19.7234 4.8181 22.4941 8.61142 22.4941 13.192C22.4941 18.0028 20.6013 21.4266 16.8173 23.2313C13.9095 24.6201 10.4478 24.9896 7.2176 24.4809C6.3878 24.3417 6.34152 24.713 6.34152 25.6376C6.34152 26.5623 6.15632 29.8469 6.15632 31.4213C6.15632 33.1797 5.32476 34.6595 3.01877 34.6595C1.40368 34.6595 0.388677 34.1043 0.157187 31.7444V31.7427ZM6.15632 17.3994C6.15632 18.2331 6.3878 18.4169 7.2176 18.4634C9.57167 18.649 11.9703 18.5562 13.8168 17.8618C15.8023 17.121 16.5858 15.4091 16.5858 13.2348C16.5858 11.6157 15.6634 9.95024 13.5853 9.30225C11.3702 8.60785 8.83272 8.60785 6.98615 8.83991C6.33976 8.93274 6.11002 9.07198 6.11002 9.62714L6.15632 17.3994Z" fill="#48A9F8"/>
<path d="M28.2618 31.6963C28.2618 25.8197 28.2618 6.66747 28.3081 4.26117C28.3544 1.53176 29.2768 0.282196 31.6308 0.282196C33.6608 0.282196 34.861 1.62459 34.861 4.21476L34.8147 31.4642C34.8147 33.1297 33.5219 34.9344 31.6771 35.0272C29.6917 35.1665 28.2618 34.0097 28.2618 31.6963Z" fill="#48A9F8"/>
<path d="M41.1842 23.0439C41.1842 14.9932 44.8756 9.11842 52.2138 9.11842C54.7976 9.11842 56.183 9.81282 57.2443 10.8767C57.4295 9.53435 58.6296 8.60966 60.5207 8.60966C62.4118 8.60966 63.7972 9.72 63.8898 12.1263C64.0287 16.2427 63.8435 21.6569 63.7046 23.4152C63.5194 25.7287 63.5194 27.0247 64.3047 28.0886C64.9974 29.0597 65.4586 29.6613 65.9661 30.3093C66.5199 31.0501 66.381 32.4371 65.5975 33.4082C64.5362 34.7042 63.3823 34.9344 61.7209 34.3793C60.3818 33.9169 58.9982 32.8994 58.2593 31.9265C55.9978 33.5456 54.1049 34.8416 50.6913 34.8416C44.5996 34.8416 41.1842 29.7987 41.1842 23.0439ZM52.7676 28.9669C54.6142 28.9669 55.7218 28.2261 57.0128 27.1157C57.474 24.2471 57.4277 20.2217 57.198 16.5676C56.1367 15.6429 54.7513 15.1788 53.4603 15.1788C50.2301 15.1788 48.1075 17.2138 48.1075 21.8408C48.1075 26.1893 49.7226 28.9651 52.7694 28.9651L52.7676 28.9669Z" fill="#48A9F8"/>
<path d="M70.952 30.0772C70.952 27.3477 70.7205 18.1866 71.1372 13.0509C71.2298 11.5711 71.4595 10.6446 72.5688 10.3215C76.3528 9.2112 80.2294 8.65604 82.4446 8.65604C84.6597 8.65604 88.3974 9.16479 90.7515 11.0623C92.5517 12.4958 93.5667 15.4572 93.5667 21.0089C93.5667 26.5605 93.7056 28.7812 93.613 31.0018C93.5204 33.2225 92.598 34.5649 90.6589 34.5649C88.7197 34.5649 86.7823 33.9169 86.7823 29.2435C86.7823 24.5701 86.6897 21.7943 86.6897 19.8986C86.6897 16.4747 86.2285 14.9949 82.352 14.9949C78.7514 14.9949 77.9679 15.8285 77.7364 17.0299C77.5512 18.0474 77.4604 18.8811 77.4604 20.8696C77.4604 22.3495 77.6919 29.7059 77.6919 31.0947C77.6919 32.9922 76.3528 34.888 74.0913 34.888C71.8299 34.888 70.9538 32.8066 70.9538 30.0772H70.952Z" fill="#48A9F8"/>
<path d="M100.996 32.1586C100.996 26.2821 101.042 17.91 101.042 16.2427C101.088 12.5886 102.518 11.5693 104.365 11.5693C106.441 11.5693 107.688 12.8653 107.688 16.0571C107.688 22.6262 107.641 25.9572 107.641 31.7873C107.641 34.1936 105.841 35.4414 104.272 35.5342C102.841 35.627 100.996 34.4703 100.996 32.1568V32.1586Z" fill="#48A9F8"/>
<path d="M113.689 29.4756C115.35 27.578 118.073 24.5255 120.888 21.3802C118.35 18.558 115.996 15.875 114.428 14.0702C112.998 12.3583 113.042 10.4162 114.242 9.35047C115.489 8.37938 117.75 8.14731 119.504 9.99845C120.888 11.4337 123.012 13.8382 125.365 16.4748C127.765 13.8382 129.888 11.5711 130.995 10.5072C133.025 8.56324 135.057 8.4722 136.348 9.8128C137.594 11.1088 137.733 12.7743 136.026 14.5772C134.596 16.0571 132.242 18.649 129.749 21.4712C132.425 24.4327 134.964 27.2549 136.765 28.9668C138.565 30.6788 138.194 32.4371 136.95 33.7313C135.703 35.0272 133.72 34.8416 131.688 32.8976C130.073 31.3714 127.811 28.9651 125.411 26.3285C122.32 29.7987 119.641 32.8048 118.765 33.5456C116.826 35.2111 114.842 35.1647 113.596 34.1472C112.396 33.1297 112.257 31.1857 113.689 29.4738V29.4756Z" fill="#48A9F8"/>
<path d="M106.876 4.37361C107.488 3.81666 108.054 3.18474 108.679 2.63315C108.891 2.54746 109.125 2.65993 109.089 2.90805L108.122 7.14943C107.924 7.81706 107.378 8.20978 106.698 8.28654L102.184 8.28297C101.5 8.15444 101.023 7.76529 100.837 7.08695C100.463 5.71957 100.255 4.29864 99.8865 2.92947C99.8277 2.66707 100.122 2.52426 100.326 2.66349L102.296 4.55748C102.541 4.76633 102.889 4.72528 103.09 4.47894L104.249 2.25828C104.344 2.10833 104.557 2.08691 104.684 2.20651C104.71 2.2315 104.753 2.31183 104.774 2.34932C105.148 2.99909 105.446 3.76668 105.834 4.39682C105.909 4.51821 105.985 4.60211 106.122 4.65209C106.471 4.77526 106.642 4.5914 106.877 4.37718L106.876 4.37361Z" fill="#48A9F8"/>
<path d="M104.336 0.0108216C104.691 -0.0409461 104.997 0.0929349 105.166 0.414252C105.535 1.11579 104.726 1.85125 104.053 1.4139C103.494 1.05153 103.67 0.107217 104.338 0.0108216H104.336Z" fill="#48A9F8"/>
<path d="M99.5285 0.517807C100.344 0.421412 100.725 1.48354 100.048 1.9316C99.5766 2.24399 98.9231 1.94231 98.8572 1.37465C98.8091 0.964081 99.119 0.564218 99.5285 0.51602V0.517807Z" fill="#48A9F8"/>
<path d="M108.79 0.73203C109.109 0.407143 109.666 0.441059 109.946 0.792722C110.442 1.4175 109.785 2.29042 109.041 1.99052C108.546 1.79059 108.42 1.1069 108.79 0.730246V0.73203Z" fill="#48A9F8"/>
</svg>
