<?xml version="1.0" encoding="UTF-8"?>
<svg id="_레이어_1" data-name="레이어 1" xmlns="http://www.w3.org/2000/svg" viewBox="0 0 1080 1080">
  <defs>
    <style>
      .cls-1 {
        fill: #48a9f8;
      }
    </style>
  </defs>
  <g>
    <path class="cls-1" d="M105.18,682l-3.98,9.57h-5.21l16.23-37.63h4.95l16.29,37.63h-5.32l-3.98-9.57h-18.98ZM114.69,659.26l-7.9,18.65h15.75l-7.85-18.65Z"/>
    <path class="cls-1" d="M166.43,664.64c2.02,1.22,3.62,2.94,4.78,5.16,1.16,2.22,1.75,4.75,1.75,7.58s-.58,5.34-1.75,7.53c-1.16,2.19-2.76,3.89-4.78,5.11-2.02,1.22-4.29,1.83-6.8,1.83-2.11,0-4.03-.48-5.75-1.45-1.72-.97-3.08-2.33-4.09-4.09v15.7h-4.84v-38.87h4.62v5.48c1-1.86,2.37-3.3,4.11-4.3,1.74-1,3.72-1.51,5.94-1.51,2.51,0,4.78.61,6.8,1.83ZM163.61,686.33c1.4-.84,2.49-2.04,3.28-3.6.79-1.56,1.18-3.34,1.18-5.35s-.39-3.84-1.18-5.4c-.79-1.56-1.88-2.76-3.28-3.6-1.4-.84-2.96-1.26-4.68-1.26s-3.33.42-4.73,1.26c-1.4.84-2.49,2.04-3.28,3.6-.79,1.56-1.18,3.36-1.18,5.4s.39,3.79,1.18,5.35,1.88,2.76,3.28,3.6c1.4.84,2.97,1.26,4.73,1.26s3.28-.42,4.68-1.26Z"/>
    <path class="cls-1" d="M185.94,664.26c1.68-.97,3.71-1.45,6.07-1.45v4.78c-.29-.04-.66-.05-1.13-.05-2.65,0-4.74.85-6.26,2.55-1.52,1.7-2.28,4.11-2.28,7.23v14.25h-4.84v-28.44h4.62v5.27c.86-1.79,2.13-3.17,3.82-4.14Z"/>
    <path class="cls-1" d="M200.46,689.98c-2.13-1.24-3.81-2.96-5.02-5.16-1.22-2.2-1.83-4.7-1.83-7.5s.61-5.29,1.83-7.5c1.22-2.2,2.89-3.92,5.02-5.16,2.13-1.24,4.54-1.85,7.23-1.85s5.1.62,7.23,1.85c2.13,1.24,3.8,2.96,5,5.16,1.2,2.2,1.8,4.7,1.8,7.5s-.6,5.29-1.8,7.5c-1.2,2.2-2.87,3.92-5,5.16-2.13,1.24-4.54,1.86-7.23,1.86s-5.1-.62-7.23-1.86ZM212.36,686.33c1.4-.84,2.5-2.04,3.31-3.6s1.21-3.36,1.21-5.4-.4-3.79-1.21-5.35c-.81-1.56-1.91-2.76-3.31-3.6s-2.96-1.26-4.68-1.26-3.28.42-4.68,1.26c-1.4.84-2.5,2.04-3.31,3.6-.81,1.56-1.21,3.34-1.21,5.35s.4,3.84,1.21,5.4,1.91,2.76,3.31,3.6c1.4.84,2.96,1.26,4.68,1.26s3.28-.42,4.68-1.26Z"/>
    <path class="cls-1" d="M219.57,701.84c-1.02-.29-1.87-.73-2.55-1.34l1.51-3.66c1,.9,2.29,1.34,3.87,1.34,1.32,0,2.36-.43,3.09-1.29.73-.86,1.1-2.12,1.1-3.76v-30h4.84v30.05c0,2.8-.74,5.01-2.23,6.64-1.49,1.63-3.59,2.45-6.32,2.45-1.18,0-2.28-.14-3.31-.43ZM226.58,656.55c-.61-.63-.91-1.39-.91-2.28s.3-1.66.91-2.28c.61-.63,1.4-.94,2.37-.94s1.76.31,2.39.91c.63.61.94,1.34.94,2.2,0,.97-.31,1.77-.94,2.39s-1.42.94-2.39.94-1.76-.31-2.37-.94Z"/>
    <path class="cls-1" d="M262.79,678.67h-21.99c.22,2.72,1.22,4.91,3.01,6.56s4.07,2.47,6.83,2.47c3.26,0,5.88-1.16,7.85-3.49l2.63,3.01c-1.22,1.51-2.73,2.65-4.54,3.44-1.81.79-3.83,1.18-6.05,1.18-2.83,0-5.36-.62-7.58-1.86-2.22-1.24-3.94-2.96-5.16-5.16-1.22-2.2-1.83-4.7-1.83-7.5s.59-5.24,1.77-7.44c1.18-2.2,2.8-3.93,4.86-5.19,2.06-1.25,4.36-1.88,6.91-1.88s4.78.6,6.83,1.8,3.65,2.9,4.81,5.11c1.16,2.2,1.75,4.72,1.75,7.55,0,.36-.04.82-.11,1.4ZM243.54,669.21c-1.61,1.61-2.53,3.71-2.74,6.29h17.53c-.25-2.58-1.18-4.68-2.8-6.29-1.61-1.61-3.6-2.42-5.97-2.42s-4.41.81-6.02,2.42Z"/>
    <path class="cls-1" d="M271.76,689.98c-2.17-1.24-3.86-2.96-5.08-5.16-1.22-2.2-1.83-4.7-1.83-7.5s.61-5.29,1.83-7.5c1.22-2.2,2.91-3.92,5.08-5.16,2.17-1.24,4.61-1.85,7.34-1.85,2.47,0,4.67.53,6.58,1.59s3.41,2.55,4.49,4.49l-3.76,2.31c-.82-1.36-1.87-2.38-3.14-3.06-1.27-.68-2.66-1.02-4.17-1.02-1.76,0-3.35.42-4.79,1.26-1.43.84-2.55,2.03-3.36,3.57-.81,1.54-1.21,3.33-1.21,5.38s.4,3.84,1.21,5.4,1.93,2.76,3.36,3.6c1.43.84,3.03,1.26,4.79,1.26,1.54,0,2.94-.33,4.19-.99,1.25-.66,2.29-1.69,3.12-3.09l3.76,2.31c-1.07,1.94-2.57,3.42-4.49,4.46s-4.11,1.56-6.58,1.56c-2.72,0-5.17-.62-7.34-1.86Z"/>
    <path class="cls-1" d="M307.8,691.35c-1.02.32-2.12.48-3.31.48-2.69,0-4.78-.76-6.26-2.28-1.49-1.52-2.23-3.68-2.23-6.48v-15.59h-4.57v-4.03h4.57v-6.56h4.84v6.56h7.79v4.03h-7.79v15.43c0,1.54.38,2.73,1.13,3.57.75.84,1.81,1.26,3.17,1.26,1.51,0,2.76-.46,3.76-1.4l1.51,3.6c-.72.61-1.59,1.07-2.61,1.4Z"/>
    <path class="cls-1" d="M345.05,664.64c2.02,1.22,3.62,2.94,4.79,5.16,1.16,2.22,1.75,4.75,1.75,7.58s-.58,5.34-1.75,7.53c-1.17,2.19-2.76,3.89-4.79,5.11-2.02,1.22-4.29,1.83-6.8,1.83-2.11,0-4.03-.48-5.75-1.45-1.72-.97-3.08-2.33-4.09-4.09v15.7h-4.84v-38.87h4.62v5.48c1-1.86,2.37-3.3,4.11-4.3,1.74-1,3.72-1.51,5.94-1.51,2.51,0,4.78.61,6.8,1.83ZM342.23,686.33c1.4-.84,2.49-2.04,3.28-3.6s1.18-3.34,1.18-5.35-.39-3.84-1.18-5.4c-.79-1.56-1.88-2.76-3.28-3.6-1.4-.84-2.96-1.26-4.68-1.26s-3.33.42-4.73,1.26c-1.4.84-2.49,2.04-3.28,3.6-.79,1.56-1.18,3.36-1.18,5.4s.39,3.79,1.18,5.35,1.88,2.76,3.28,3.6c1.4.84,2.97,1.26,4.73,1.26s3.28-.42,4.68-1.26Z"/>
    <path class="cls-1" d="M360.96,651.68v39.89h-4.84v-39.89h4.84Z"/>
    <path class="cls-1" d="M386.47,665.71c1.97,1.94,2.96,4.78,2.96,8.55v17.31h-4.52v-4.62c-.79,1.58-1.96,2.79-3.52,3.63-1.56.84-3.43,1.26-5.62,1.26-3.08,0-5.5-.76-7.26-2.28-1.76-1.52-2.63-3.52-2.63-5.99s.87-4.45,2.61-5.94c1.74-1.49,4.45-2.23,8.14-2.23h7.96c0-1.22-.11-2.17-.32-2.85-.21-1.83-.9-3.22-2.04-4.17-1.15-.95-2.76-1.42-4.84-1.42-1.65,0-3.24.29-4.78.86-1.54.57-2.85,1.36-3.92,2.36l-1.88-3.55c1.4-1.22,3.07-2.16,5.03-2.82,1.95-.66,3.99-.99,6.1-.99,3.73,0,6.58.97,8.55,2.9ZM381.69,686.92c1.32-.91,2.29-2.23,2.9-3.95v-4.41h-7.53c-2.26,0-3.9.42-4.92,1.26-1.02.84-1.53,2-1.53,3.47,0,1.54.56,2.76,1.67,3.65,1.11.9,2.63,1.34,4.57,1.34s3.51-.46,4.84-1.37Z"/>
    <path class="cls-1" d="M417.46,665.95c2.01,2.1,3.01,5.13,3.01,9.11v16.5h-4.84v-15.8c0-2.8-.64-4.91-1.91-6.34-1.27-1.43-3.09-2.15-5.46-2.15-2.65,0-4.75.84-6.29,2.53-1.54,1.68-2.31,4.05-2.31,7.1v14.68h-4.89v-28.44h4.68v5.11c.97-1.72,2.31-3.05,4.03-4,1.72-.95,3.69-1.42,5.91-1.42,3.37,0,6.05,1.05,8.06,3.15Z"/>
    <path class="cls-1" d="M449.26,665.95c2.01,2.1,3.01,5.13,3.01,9.11v16.5h-4.84v-15.8c0-2.8-.64-4.91-1.91-6.34-1.27-1.43-3.09-2.15-5.46-2.15-2.65,0-4.75.84-6.29,2.53-1.54,1.68-2.31,4.05-2.31,7.1v14.68h-4.89v-28.44h4.68v5.11c.97-1.72,2.31-3.05,4.03-4,1.72-.95,3.69-1.42,5.91-1.42,3.37,0,6.05,1.05,8.06,3.15Z"/>
    <path class="cls-1" d="M458.83,656.55c-.63-.63-.94-1.39-.94-2.28s.31-1.66.94-2.28,1.42-.94,2.39-.94,1.76.31,2.39.91.94,1.34.94,2.2c0,.93-.31,1.72-.94,2.36-.63.65-1.42.97-2.39.97s-1.77-.31-2.39-.94ZM463.64,663.13v28.44h-4.84v-28.44h4.84Z"/>
    <path class="cls-1" d="M492.96,665.95c2.01,2.1,3.01,5.13,3.01,9.11v16.5h-4.84v-15.8c0-2.8-.64-4.91-1.91-6.34-1.27-1.43-3.09-2.15-5.46-2.15-2.65,0-4.75.84-6.29,2.53-1.54,1.68-2.31,4.05-2.31,7.1v14.68h-4.89v-28.44h4.68v5.11c.97-1.72,2.31-3.05,4.03-4,1.72-.95,3.69-1.42,5.91-1.42,3.37,0,6.05,1.05,8.06,3.15Z"/>
    <path class="cls-1" d="M524.84,698.72c-2.35,2.37-5.83,3.55-10.45,3.55-2.55,0-4.94-.37-7.18-1.1-2.24-.73-4.08-1.78-5.51-3.14l2.1-3.66c1.25,1.18,2.79,2.1,4.59,2.77,1.81.66,3.7.99,5.67.99,3.23,0,5.61-.79,7.15-2.36,1.54-1.58,2.31-4.01,2.31-7.31v-3.6c-1.04,1.76-2.44,3.12-4.19,4.09-1.76.97-3.73,1.45-5.91,1.45-2.51,0-4.78-.58-6.83-1.75-2.04-1.16-3.65-2.8-4.84-4.89s-1.77-4.49-1.77-7.18.59-5.07,1.77-7.15c1.18-2.08,2.8-3.7,4.84-4.86,2.04-1.16,4.32-1.75,6.83-1.75,2.26,0,4.29.5,6.1,1.51,1.81,1,3.22,2.44,4.22,4.3v-5.48h4.62v24.67c0,4.91-1.17,8.55-3.52,10.91ZM519.03,684.93c1.42-.81,2.53-1.94,3.33-3.39.81-1.45,1.21-3.11,1.21-4.97s-.4-3.51-1.21-4.94c-.8-1.43-1.92-2.54-3.33-3.33-1.42-.79-3.02-1.18-4.81-1.18s-3.39.39-4.81,1.18c-1.42.79-2.53,1.9-3.33,3.33-.81,1.43-1.21,3.08-1.21,4.94s.4,3.52,1.21,4.97c.8,1.45,1.92,2.58,3.33,3.39s3.02,1.21,4.81,1.21,3.39-.4,4.81-1.21Z"/>
    <path class="cls-1" d="M556.32,692c-2.51,0-4.77-.41-6.77-1.24-2.01-.82-3.58-1.99-4.7-3.49s-1.69-3.21-1.69-5.11c0-2.26.7-4.27,2.1-6.05,1.4-1.77,3.74-3.61,7.04-5.51-1.61-1.68-2.76-3.18-3.44-4.49-.68-1.31-1.02-2.7-1.02-4.17,0-2.51.92-4.53,2.77-6.07,1.85-1.54,4.29-2.31,7.34-2.31,2.83,0,5.1.71,6.8,2.12,1.7,1.42,2.55,3.31,2.55,5.67,0,1.86-.62,3.55-1.85,5.05-1.24,1.51-3.33,3.1-6.26,4.78l9.35,9.57c1.04-1.97,1.83-4.26,2.37-6.88l4.09,1.24c-.72,3.48-1.83,6.34-3.33,8.6l5.16,5.16-2.9,3.28-5.05-5.16c-3.26,3.33-7.44,5-12.53,5ZM565.83,684.15l-10.7-10.86c-2.62,1.58-4.43,2.98-5.46,4.22-1.02,1.24-1.53,2.63-1.53,4.17,0,1.9.78,3.42,2.34,4.57,1.56,1.15,3.61,1.72,6.16,1.72,3.76,0,6.83-1.27,9.19-3.82ZM553.95,658.45c-.97.86-1.45,2.01-1.45,3.44,0,1.04.28,2.02.83,2.96.56.93,1.57,2.15,3.04,3.66,2.47-1.43,4.18-2.66,5.13-3.68.95-1.02,1.42-2.14,1.42-3.36,0-1.33-.44-2.37-1.32-3.14-.88-.77-2.11-1.16-3.68-1.16-1.68,0-3.01.43-3.98,1.29Z"/>
    <path class="cls-1" d="M614.26,678.67h-21.99c.21,2.72,1.22,4.91,3.01,6.56s4.07,2.47,6.83,2.47c3.26,0,5.88-1.16,7.85-3.49l2.63,3.01c-1.22,1.51-2.73,2.65-4.54,3.44-1.81.79-3.83,1.18-6.05,1.18-2.83,0-5.36-.62-7.58-1.86-2.22-1.24-3.94-2.96-5.16-5.16-1.22-2.2-1.83-4.7-1.83-7.5s.59-5.24,1.77-7.44c1.18-2.2,2.8-3.93,4.86-5.19,2.06-1.25,4.36-1.88,6.91-1.88s4.78.6,6.83,1.8c2.04,1.2,3.65,2.9,4.81,5.11,1.16,2.2,1.75,4.72,1.75,7.55,0,.36-.04.82-.11,1.4ZM595.02,669.21c-1.61,1.61-2.53,3.71-2.74,6.29h17.53c-.25-2.58-1.18-4.68-2.8-6.29-1.61-1.61-3.6-2.42-5.97-2.42s-4.41.81-6.02,2.42Z"/>
    <path class="cls-1" d="M627.13,680.55l-7.9,11.02h-5.32l10.54-14.51-10.11-13.92h5.48l7.42,10.32,7.47-10.32h5.21l-10.11,13.82,10.7,14.62h-5.59l-7.8-11.02Z"/>
    <path class="cls-1" d="M667.96,678.67h-21.99c.21,2.72,1.22,4.91,3.01,6.56s4.07,2.47,6.83,2.47c3.26,0,5.88-1.16,7.85-3.49l2.63,3.01c-1.22,1.51-2.73,2.65-4.54,3.44-1.81.79-3.83,1.18-6.05,1.18-2.83,0-5.36-.62-7.58-1.86-2.22-1.24-3.94-2.96-5.16-5.16-1.22-2.2-1.83-4.7-1.83-7.5s.59-5.24,1.77-7.44c1.18-2.2,2.8-3.93,4.86-5.19,2.06-1.25,4.36-1.88,6.91-1.88s4.78.6,6.83,1.8c2.04,1.2,3.65,2.9,4.81,5.11,1.16,2.2,1.75,4.72,1.75,7.55,0,.36-.04.82-.11,1.4ZM648.72,669.21c-1.61,1.61-2.53,3.71-2.74,6.29h17.53c-.25-2.58-1.18-4.68-2.8-6.29-1.61-1.61-3.6-2.42-5.97-2.42s-4.41.81-6.02,2.42Z"/>
    <path class="cls-1" d="M676.94,689.98c-2.17-1.24-3.86-2.96-5.08-5.16-1.22-2.2-1.83-4.7-1.83-7.5s.61-5.29,1.83-7.5,2.91-3.92,5.08-5.16c2.17-1.24,4.61-1.85,7.34-1.85,2.47,0,4.67.53,6.59,1.59,1.92,1.06,3.41,2.55,4.49,4.49l-3.76,2.31c-.83-1.36-1.87-2.38-3.15-3.06-1.27-.68-2.66-1.02-4.17-1.02-1.76,0-3.35.42-4.78,1.26-1.43.84-2.55,2.03-3.36,3.57-.81,1.54-1.21,3.33-1.21,5.38s.4,3.84,1.21,5.4c.8,1.56,1.93,2.76,3.36,3.6,1.43.84,3.03,1.26,4.78,1.26,1.54,0,2.94-.33,4.19-.99,1.25-.66,2.29-1.69,3.12-3.09l3.76,2.31c-1.07,1.94-2.57,3.42-4.49,4.46-1.92,1.04-4.11,1.56-6.59,1.56-2.72,0-5.17-.62-7.34-1.86Z"/>
    <path class="cls-1" d="M724.3,691.57h-4.57v-5.11c-.97,1.72-2.26,3.05-3.87,3.98-1.61.93-3.48,1.4-5.59,1.4-3.48,0-6.23-1.05-8.28-3.15-2.04-2.1-3.06-5.15-3.06-9.16v-16.4h4.84v15.7c0,2.83.64,4.97,1.93,6.42,1.29,1.45,3.12,2.18,5.48,2.18,2.54,0,4.57-.84,6.07-2.53,1.51-1.68,2.26-4.05,2.26-7.1v-14.68h4.78v28.44Z"/>
    <path class="cls-1" d="M743.49,691.35c-1.02.32-2.12.48-3.31.48-2.69,0-4.78-.76-6.26-2.28-1.49-1.52-2.23-3.68-2.23-6.48v-15.59h-4.57v-4.03h4.57v-6.56h4.84v6.56h7.8v4.03h-7.8v15.43c0,1.54.38,2.73,1.13,3.57s1.81,1.26,3.17,1.26c1.51,0,2.76-.46,3.76-1.4l1.51,3.6c-.72.61-1.59,1.07-2.61,1.4Z"/>
    <path class="cls-1" d="M749.86,656.55c-.63-.63-.94-1.39-.94-2.28s.31-1.66.94-2.28,1.42-.94,2.39-.94,1.76.31,2.39.91.94,1.34.94,2.2c0,.93-.31,1.72-.94,2.36-.63.65-1.42.97-2.39.97s-1.77-.31-2.39-.94ZM754.67,663.13v28.44h-4.84v-28.44h4.84Z"/>
    <path class="cls-1" d="M766.07,689.98c-2.13-1.24-3.81-2.96-5.03-5.16-1.22-2.2-1.83-4.7-1.83-7.5s.61-5.29,1.83-7.5,2.89-3.92,5.03-5.16c2.13-1.24,4.54-1.85,7.23-1.85s5.1.62,7.23,1.85c2.13,1.24,3.8,2.96,5,5.16,1.2,2.2,1.8,4.7,1.8,7.5s-.6,5.29-1.8,7.5c-1.2,2.2-2.87,3.92-5,5.16-2.13,1.24-4.54,1.86-7.23,1.86s-5.1-.62-7.23-1.86ZM777.97,686.33c1.4-.84,2.5-2.04,3.31-3.6s1.21-3.36,1.21-5.4-.4-3.79-1.21-5.35c-.81-1.56-1.91-2.76-3.31-3.6s-2.96-1.26-4.68-1.26-3.28.42-4.68,1.26-2.5,2.04-3.31,3.6c-.81,1.56-1.21,3.34-1.21,5.35s.4,3.84,1.21,5.4c.8,1.56,1.91,2.76,3.31,3.6s2.96,1.26,4.68,1.26,3.28-.42,4.68-1.26Z"/>
    <path class="cls-1" d="M814.12,665.95c2.01,2.1,3.01,5.13,3.01,9.11v16.5h-4.84v-15.8c0-2.8-.64-4.91-1.91-6.34-1.27-1.43-3.09-2.15-5.46-2.15-2.65,0-4.75.84-6.29,2.53-1.54,1.68-2.31,4.05-2.31,7.1v14.68h-4.89v-28.44h4.68v5.11c.97-1.72,2.31-3.05,4.03-4,1.72-.95,3.69-1.42,5.91-1.42,3.37,0,6.05,1.05,8.06,3.15Z"/>
    <path class="cls-1" d="M874.7,665.93c1.94,2.08,2.9,5.13,2.9,9.14v16.5h-4.78v-15.8c0-2.8-.62-4.91-1.85-6.34-1.24-1.43-2.97-2.15-5.19-2.15-2.51,0-4.51.84-6,2.53-1.49,1.68-2.23,4.01-2.23,6.99v14.78h-4.84v-15.8c0-2.8-.61-4.91-1.83-6.34-1.22-1.43-2.94-2.15-5.16-2.15-2.51,0-4.5.84-5.97,2.53-1.47,1.68-2.2,4.01-2.2,6.99v14.78h-4.89v-28.44h4.68v5.05c.93-1.72,2.22-3.05,3.87-3.98,1.65-.93,3.55-1.4,5.7-1.4,2.26,0,4.21.53,5.86,1.59s2.85,2.59,3.6,4.6c.97-1.9,2.36-3.4,4.17-4.52,1.81-1.11,3.9-1.67,6.26-1.67,3.33,0,5.97,1.04,7.9,3.12Z"/>
    <path class="cls-1" d="M902.09,665.71c1.97,1.94,2.96,4.78,2.96,8.55v17.31h-4.52v-4.62c-.79,1.58-1.96,2.79-3.52,3.63-1.56.84-3.43,1.26-5.62,1.26-3.08,0-5.5-.76-7.26-2.28-1.76-1.52-2.63-3.52-2.63-5.99s.87-4.45,2.61-5.94c1.74-1.49,4.45-2.23,8.14-2.23h7.96c0-1.22-.11-2.17-.32-2.85-.21-1.83-.9-3.22-2.04-4.17-1.15-.95-2.76-1.42-4.84-1.42-1.65,0-3.24.29-4.78.86-1.54.57-2.85,1.36-3.92,2.36l-1.88-3.55c1.4-1.22,3.07-2.16,5.03-2.82,1.95-.66,3.99-.99,6.1-.99,3.73,0,6.58.97,8.55,2.9ZM897.31,686.92c1.32-.91,2.29-2.23,2.9-3.95v-4.41h-7.53c-2.26,0-3.9.42-4.92,1.26-1.02.84-1.53,2-1.53,3.47,0,1.54.56,2.76,1.67,3.65,1.11.9,2.63,1.34,4.57,1.34s3.51-.46,4.84-1.37Z"/>
    <path class="cls-1" d="M924.4,691.35c-1.02.32-2.12.48-3.31.48-2.69,0-4.78-.76-6.26-2.28-1.49-1.52-2.23-3.68-2.23-6.48v-15.59h-4.57v-4.03h4.57v-6.56h4.84v6.56h7.8v4.03h-7.8v15.43c0,1.54.38,2.73,1.13,3.57s1.81,1.26,3.17,1.26c1.51,0,2.76-.46,3.76-1.4l1.51,3.6c-.72.61-1.59,1.07-2.61,1.4Z"/>
    <path class="cls-1" d="M939.18,664.26c1.68-.97,3.71-1.45,6.07-1.45v4.78c-.29-.04-.66-.05-1.13-.05-2.65,0-4.74.85-6.26,2.55-1.52,1.7-2.28,4.11-2.28,7.23v14.25h-4.84v-28.44h4.62v5.27c.86-1.79,2.13-3.17,3.82-4.14Z"/>
    <path class="cls-1" d="M949.39,656.55c-.63-.63-.94-1.39-.94-2.28s.31-1.66.94-2.28,1.42-.94,2.39-.94,1.76.31,2.39.91.94,1.34.94,2.2c0,.93-.31,1.72-.94,2.36-.63.65-1.42.97-2.39.97s-1.77-.31-2.39-.94ZM954.21,663.13v28.44h-4.84v-28.44h4.84Z"/>
    <path class="cls-1" d="M970.63,680.55l-7.9,11.02h-5.32l10.54-14.51-10.11-13.92h5.48l7.42,10.32,7.47-10.32h5.21l-10.11,13.82,10.7,14.62h-5.59l-7.8-11.02Z"/>
  </g>
  <g>
    <path class="cls-1" d="M126.45,410.5c10.11,0,18.92,8.03,18.92,19.7,0,14.51-10.89,22.81-22.55,22.81s-20.47-7.26-20.47-20.73c0-14.25,11.4-21.77,24.1-21.77ZM107.27,557.71c2.59-7.26,4.41-15.29,4.41-20.99,0-4.15-7.26-7.77-7.26-20.73,0-11.14,7-18.14,20.47-18.14,9.07,0,18.4,9.33,18.4,22.81s-7,29.8-15.29,42.76c-3.63,5.7-11.14,9.85-17.1,8.03-5.7-1.81-6.22-6.48-3.63-13.74Z"/>
    <g>
      <path class="cls-1" d="M180.72,555.55c-1.3-15.29-.78-137.88-.78-149.02,0-8.03,4.15-10.89,12.7-11.4,31.36-1.81,46.91-1.56,71.53,3.89,26.43,5.7,41.99,26.95,41.99,52.61,0,26.95-10.63,46.13-31.88,56.24-16.33,7.78-35.77,9.85-53.91,7-4.66-.78-4.92,1.3-4.92,6.48s-1.04,23.58-1.04,32.4c0,9.85-4.67,18.14-17.62,18.14-9.07,0-14.77-3.11-16.07-16.33ZM214.41,475.2c0,4.67,1.3,5.7,5.96,5.96,13.22,1.04,26.69.52,37.06-3.37,11.15-4.15,15.55-13.74,15.55-25.92,0-9.07-5.18-18.4-16.85-22.03-12.44-3.89-26.69-3.89-37.06-2.59-3.63.52-4.92,1.3-4.92,4.41l.26,43.54Z"/>
      <path class="cls-1" d="M338.55,555.29c0-32.92,0-140.21.26-153.69.26-15.29,5.44-22.29,18.66-22.29,11.4,0,18.14,7.52,18.14,22.03l-.26,152.65c0,9.33-7.26,19.44-17.62,19.96-11.15.78-19.18-5.7-19.18-18.66Z"/>
      <path class="cls-1" d="M411.12,506.82c0-45.1,20.73-78.01,61.94-78.01,14.51,0,22.29,3.89,28.25,9.85,1.04-7.52,7.78-12.7,18.4-12.7s18.4,6.22,18.92,19.7c.78,23.06-.26,53.39-1.04,63.24-1.04,12.96-1.04,20.22,3.37,26.18,3.89,5.44,6.48,8.81,9.33,12.44,3.11,4.15,2.33,11.92-2.07,17.36-5.96,7.26-12.44,8.55-21.77,5.44-7.52-2.59-15.29-8.29-19.44-13.74-12.7,9.07-23.33,16.33-42.5,16.33-34.21,0-53.39-28.25-53.39-66.09ZM476.17,540c10.37,0,16.59-4.15,23.84-10.37,2.59-16.07,2.33-38.62,1.04-59.09-5.96-5.18-13.74-7.78-20.99-7.78-18.14,0-30.06,11.4-30.06,37.32,0,24.36,9.07,39.91,26.18,39.91Z"/>
      <path class="cls-1" d="M578.29,546.22c0-15.29-1.3-66.61,1.04-95.38.52-8.29,1.81-13.48,8.04-15.29,21.25-6.22,43.02-9.33,55.46-9.33s33.43,2.85,46.65,13.48c10.11,8.03,15.81,24.62,15.81,55.72s.78,43.54.26,55.98c-.52,12.44-5.7,19.96-16.59,19.96s-21.77-3.63-21.77-29.81-.52-41.73-.52-52.35c0-19.18-2.59-27.47-24.36-27.47-20.22,0-24.62,4.67-25.92,11.4-1.04,5.7-1.55,10.37-1.55,21.51,0,8.29,1.3,49.5,1.3,57.28,0,10.63-7.52,21.25-20.22,21.25s-17.62-11.66-17.62-26.95Z"/>
      <path class="cls-1" d="M747.01,557.88c0-32.92.26-79.82.26-89.16.26-20.47,8.29-26.18,18.66-26.18,11.66,0,18.66,7.26,18.66,25.14,0,36.8-.26,55.46-.26,88.12,0,13.48-10.11,20.47-18.92,20.99-8.04.52-18.4-5.96-18.4-18.92Z"/>
      <path class="cls-1" d="M818.29,542.85c9.33-10.63,24.62-27.73,40.43-45.35-14.25-15.81-27.47-30.84-36.28-40.95-8.03-9.59-7.78-20.47-1.04-26.44,7-5.44,19.7-6.74,29.55,3.63,7.77,8.04,19.7,21.51,32.91,36.28,13.48-14.77,25.4-27.47,31.62-33.43,11.4-10.89,22.81-11.4,30.06-3.89,7,7.26,7.78,16.59-1.81,26.69-8.03,8.29-21.25,22.81-35.25,38.62,15.03,16.59,29.29,32.4,39.4,41.99,10.11,9.59,8.03,19.44,1.04,26.69-7,7.26-18.14,6.22-29.55-4.67-9.07-8.55-21.77-22.03-35.25-36.8-17.36,19.44-32.4,36.28-37.32,40.43-10.89,9.33-22.03,9.07-29.03,3.37-6.74-5.7-7.52-16.59.52-26.18Z"/>
    </g>
    <g id="BJZBTZ.tif">
      <g>
        <path class="cls-1" d="M780.03,402.23c3.44-3.12,6.62-6.66,10.13-9.75,1.19-.48,2.5.15,2.3,1.54l-5.43,23.76c-1.11,3.74-4.18,5.94-8,6.37l-25.35-.02c-3.84-.72-6.52-2.9-7.56-6.7-2.1-7.66-3.27-15.62-5.34-23.29-.33-1.47,1.32-2.27,2.47-1.49l11.06,10.61c1.38,1.17,3.33.94,4.46-.44l6.51-12.44c.53-.84,1.73-.96,2.44-.29.15.14.39.59.51.8,2.1,3.64,3.77,7.94,5.95,11.47.42.68.85,1.15,1.62,1.43,1.96.69,2.92-.34,4.24-1.54Z"/>
        <path class="cls-1" d="M765.77,377.79c1.99-.29,3.71.46,4.66,2.26,2.07,3.93-2.47,8.05-6.25,5.6-3.14-2.03-2.15-7.32,1.6-7.86Z"/>
        <path class="cls-1" d="M738.77,380.63c4.58-.54,6.72,5.41,2.92,7.92-2.65,1.75-6.32.06-6.69-3.12-.27-2.3,1.47-4.54,3.77-4.81Z"/>
        <path class="cls-1" d="M790.78,381.84c1.79-1.82,4.92-1.63,6.49.34,2.79,3.5-.9,8.39-5.08,6.71-2.78-1.12-3.49-4.95-1.41-7.06Z"/>
      </g>
    </g>
  </g>
</svg>